<?xml version="1.0" encoding="utf-8"?>
<!-- Generator: Adobe Illustrator 16.0.0, SVG Export Plug-In . SVG Version: 6.00 Build 0)  -->
<!DOCTYPE svg PUBLIC "-//W3C//DTD SVG 1.1//EN" "http://www.w3.org/Graphics/SVG/1.1/DTD/svg11.dtd">
<svg version="1.1" id="Layer_1" xmlns="http://www.w3.org/2000/svg" xmlns:xlink="http://www.w3.org/1999/xlink" x="0px" y="0px"
	 width="350px" height="350px" viewBox="0 0 350 350" enable-background="new 0 0 350 350" xml:space="preserve">
<path fill="#894533" d="M287,172c0.181-10.215,16.434-10.304,20.438-2.706c5.067,9.616-8.257,21.52-17.938,18.73
	C283.427,186.275,282.468,179.024,287,172"/>
<path fill="#894533" d="M212.5,240.5c3.182,6.176,7.807,11.007,5,18c-2.337,5.822-10.905,9.113-11,14
	c-0.134,6.856,10.663,4.878,14.5,4.5c8.632-0.85,18.336-0.706,20.399-11.487C244.241,250.676,231.933,239.504,212.5,240.5"/>
<path fill="#945748" d="M96.5,202c-0.725,6.355,2.618,14.708,3.609,21.002c1.045,6.631,2.531,13.145,3.78,19.887
	c2.449,13.225,2.807,21.76-8.389,30.498c-4.103,3.203-10.751,8.038-3.998,11.988c4.961,2.903,14.032,2.084,19.486,1.248
	c7.562-1.159,13.966-3.322,16.373-11.071c1.988-6.398-1.29-19.987,6.641-22.452c8.481-2.635,10.641,11.773,11.524,17.275
	c0.578,3.606,1.019,5.803-1.292,8.371c-2.167,2.408-9.311,4.18-8.761,8.943c1.017,8.806,22.858,7.035,28.508,5.334
	c15.8-4.761,11.588-20.196,10.081-32.527c-2.032-16.618,23.585-15.973,35.132-16.515c7.622-0.357,14.311,0.811,19.02,7.231
	c3.117,4.252,8.509,12.332,6.105,17.244c-2.479,5.067-9.701,7.381-10.798,13.457c-1.425,7.897,7.482,10.719,13.683,11.354
	c15.468,1.584,29.485-2.775,35.07-18.562c3.593-10.155,5.865-20.932,9.223-31.207c3.248-9.942,9.432-18.553,12.043-28.6
	c5.401-20.789,2.072-44.146-11.551-60.799c-14.224-17.386-33.558-25.146-55.965-24.135c-18.066,0.816-28.464,18.002-38.89,30.641
	c-9.344,11.326-18.412,21.682-32.166,27.945c-10.897,4.962-24.749,8.815-36.608,10.784C110.299,200.675,102.044,202.704,96.5,202"/>
<path fill="#945748" d="M93.5,86.5c0-10.868-3.934-20.503-15.389-23.375C66.238,60.147,53.425,63.554,45.514,73
	c-7.178,8.571-6.743,21.021-2.269,30.731c2.759,5.989,11.383,17.59,19.783,14.192c3.084-1.248,7.029-7.86,9.498-10.447
	c3.471-3.638,7.198-6.954,10.886-10.388C87.029,93.72,90.137,90.488,93.5,86.5"/>
<path fill="#F9BF65" d="M89,98.5c4.191-16.177-15.008-29.151-27.293-17.019c-9.611,9.492-3.834,23.135,6.819,28.894
	c4.759,2.572,5.613,1.226,10.1-2.363C82.033,105.286,86.453,103.126,89,98.5"/>
<path fill="#945748" d="M182.482,82.5c0-10.868,3.934-20.503,15.389-23.375c11.873-2.978,24.687,0.429,32.598,9.875
	c7.178,8.571,6.743,21.021,2.269,30.731c-2.759,5.989-11.383,17.59-19.783,14.192c-3.084-1.248-7.028-7.86-9.498-10.447
	c-3.471-3.638-7.197-6.954-10.886-10.388C188.953,89.72,185.846,86.488,182.482,82.5"/>
<path fill="#F9BF65" d="M186.982,94.5c-4.191-16.177,15.008-29.151,27.293-17.019c9.611,9.492,3.834,23.135-6.819,28.894
	c-4.759,2.572-5.612,1.226-10.1-2.363C193.949,101.286,189.529,99.126,186.982,94.5"/>
<path fill="#A06A5C" d="M127,69.5c0,0-37-1-62,33.5c-26.125,36.052-15.5,77.5,14.5,94.5s84,24,116,2s46.5-48,33.5-80
	s-42.5-46-65-48.5S127,69.5,127,69.5"/>
<g>
	<defs>
		<path id="SVGID_1_" d="M127,69.5c0,0-37-1-62,33.5c-26.125,36.052-15.5,77.5,14.499,94.5c30.001,17,84.001,24,116.001,2
			s46.5-48,33.499-80C216,87.5,186.5,73.5,164,71c-12.499-1.389-22.53-1.697-28.977-1.697C129.864,69.303,127,69.5,127,69.5"/>
	</defs>
	<clipPath id="SVGID_2_">
		<use xlink:href="#SVGID_1_"  overflow="visible"/>
	</clipPath>
	<path clip-path="url(#SVGID_2_)" fill="#F9BF65" d="M97,210c-11.755-12.293-6.156-23.418,4.502-33.611
		c8.537-8.165,19.324-13.17,30.498-14.889c26-4,48.812,13.867,52.485,37.623c1.998,12.92-20.88,16.464-30.264,18.083
		c-8.666,1.496-18.484,2.095-27.227,0.813C117.917,216.688,109.827,212.809,97,210"/>
</g>
<path fill="#FFFFFF" d="M108,154.667c0,6.442-5.223,11.667-11.667,11.667c-6.443,0-11.666-5.225-11.666-11.667
	c0-6.443,5.223-11.667,11.666-11.667C102.777,143,108,148.224,108,154.667"/>
<path fill="#1D1D1B" d="M103.247,154.667c0,3.817-3.095,6.914-6.914,6.914c-3.818,0-6.913-3.097-6.913-6.914
	c0-3.818,3.095-6.914,6.913-6.914C100.152,147.753,103.247,150.849,103.247,154.667"/>
<path fill="#FFFFFF" d="M100.465,152.074c0,0.805-0.653,1.458-1.458,1.458c-0.806,0-1.459-0.653-1.459-1.458
	s0.653-1.458,1.459-1.458C99.812,150.616,100.465,151.27,100.465,152.074"/>
<path fill="#FFFFFF" d="M188.333,154c0,6.443-5.223,11.667-11.667,11.667c-6.442,0-11.666-5.224-11.666-11.667
	s5.224-11.667,11.666-11.667C183.11,142.333,188.333,147.557,188.333,154"/>
<path fill="#1D1D1B" d="M183.58,154c0,3.818-3.095,6.914-6.914,6.914c-3.818,0-6.913-3.096-6.913-6.914s3.095-6.914,6.913-6.914
	C180.485,147.086,183.58,150.182,183.58,154"/>
<path fill="#FFFFFF" d="M180.799,151.407c0,0.806-0.653,1.458-1.458,1.458c-0.807,0-1.459-0.652-1.459-1.458
	c0-0.805,0.652-1.458,1.459-1.458C180.146,149.949,180.799,150.603,180.799,151.407"/>
<path fill="#2D2317" d="M150.834,168.909c-4.065-5.174-28.1-6.547-26.697,3.621c1.349,9.787,12.573,18.784,20.556,10.294
	C147.471,179.87,153.938,172.859,150.834,168.909"/>
</svg>
