<?xml version="1.0" encoding="utf-8"?>
<!-- Generator: Adobe Illustrator 16.0.0, SVG Export Plug-In . SVG Version: 6.00 Build 0)  -->
<!DOCTYPE svg PUBLIC "-//W3C//DTD SVG 1.1//EN" "http://www.w3.org/Graphics/SVG/1.1/DTD/svg11.dtd">
<svg version="1.1" id="Layer_1" xmlns="http://www.w3.org/2000/svg" xmlns:xlink="http://www.w3.org/1999/xlink" x="0px" y="0px"
	 width="350px" height="350px" viewBox="0 0 350 350" enable-background="new 0 0 350 350" xml:space="preserve">
<path d="M246.772,181.706l43.154,1.973c0,0-39.905,5.02-44.719,6.465c-9.155,24.449-36.185,18.231-44.937,29.957
	c-13.777,18.48-39.112,24.746-78.587,13.998c-3.994,5.8-43.797,36.388-55.139,40.079c-11.336,3.694,23.449-23.628,23.449-23.628
	s-16.682,11.578-27.984,14.579c-11.286,2.979,30.414-28.468,30.414-28.468s-18.118,7.543-27.924,8.164
	c-9.825,0.619,18.952-17.729,18.952-17.729s-8.87,0.68-12.226,0.68c-3.363,0-4.84-2.739,7.185-8.172
	c12.018-5.435,37.435-17.917,60.893-22.401c1.576-8.157-40.865-71.705-38.496-76.97c2.379-5.278,23.992-3.433,54.839,32.162
	c2.898-5.266-5.829-83.567,1.04-76.46c6.866,7.135,36.141,65.653,39.292,110.464c5.009,1.062,14.331-6.87,24.512-11.603
	C238.807,166.267,246.772,181.706,246.772,181.706z"/>
</svg>
