<?xml version="1.0" encoding="utf-8"?>
<!-- Generator: Adobe Illustrator 16.0.0, SVG Export Plug-In . SVG Version: 6.00 Build 0)  -->
<!DOCTYPE svg PUBLIC "-//W3C//DTD SVG 1.1//EN" "http://www.w3.org/Graphics/SVG/1.1/DTD/svg11.dtd">
<svg version="1.1" id="Layer_1" xmlns="http://www.w3.org/2000/svg" xmlns:xlink="http://www.w3.org/1999/xlink" x="0px" y="0px"
	 width="350px" height="350px" viewBox="0 0 350 350" enable-background="new 0 0 350 350" xml:space="preserve">
<g>
	<path d="M271.581,203.099c-4.173-0.829-5.544-6.874-5.435-11.775c0.109-5.697,2.135-9.267,5.561-9.835
		c3.093-0.482,6.064-0.405,8.892-0.009c-0.72-3.013-1.646-5.747-2.794-7.863c-3.911-7.193-10.446-6.287-17.963-14.586
		c-17.777-19.686-44.067-50.429-62.621-49.55c-26.378,1.218-114.614,42.83-119.087,44.609c-4.462,1.777-21.204-7.399-21.443-12.815
		c-0.249-5.433,10.603-19.986,18.247-21.204c7.641-1.245,23.167,0.49,27.364-1.736c4.194-2.217,9.863-11.342,9.863-15.035
		c0-3.697-9.863-11.342-9.863-11.342s-3.703-6.169-8.634-5.925c-4.931,0.255-11.586,6.417-16.028,5.925
		c1.231,4.682,11.097,9.616,15.229,9.406c4.126-0.196,8.433-3.971,8.433-3.971s3.705,1.465,5.681,4.436
		c1.375,2.064-0.989,7.153-4.937,9.36c-3.952,2.237-22.427-1.218-29.59,0.51c-7.158,1.708-28.593,22.193-27.601,30.557
		c0.976,8.397,22.912,27.628,31.041,29.12c-5.416,11.568,0.254,39.662-2.2,41.654c-2.466,1.971-11.837-2.972-13.871,2.004
		c-2.036,4.98,11.405,29.297,9.426,32.516c-1.974,3.19-1.631,10.494-1.631,10.494l20.855-0.145
		c-0.241-6.415-5.843-10.588-5.843-10.588l-2.936-12.859c0,0,15.434-8.127,20.365-16.022c1.482,3.952,8.395,11.105,11.347,12.099
		c2.958,0.979-5.92,1.97-4.525,5.949c1.39,3.995,33.868,15.735,34.397,18.028c-3.729,5.848-1.042,9.803-1.042,9.803l18.512,0.465
		c-2.215-12.791-11.734-16.896-11.734-16.896L131.806,231.2c0,0,14.865-16.944,16.302-34.171
		c9.824,12.596,31.137,14.755,31.137,14.755s-16.077,38.616-17.153,41.172c-1.059,2.54,2.333,11.816,2.333,11.816h20.216
		c-1.215-4.816-11.606-11.85-11.606-11.85l28.119-41.47l7.164-0.109c0,0,7.881,33.978,6.409,37.179
		c-1.476,3.196-1.237,12.323-1.237,12.323l20.705-0.493c-0.492-6.652-6.891-10.842-6.891-10.842l0.474-38.474
		c0,0,11.359,3.717,17.555-0.263c-2.258,6.943-3.725,23.223-2.487,26.648c1.236,3.421,5.656,5.682,9.107,5.189
		c3.453-0.51,23.923-22.684,27.883-29.676c1.286-2.271,2.063-6.13,2.386-10.65c-1.311,0.101-2.638,0.254-3.927,0.465
		C275.593,203.167,273.316,203.436,271.581,203.099z"/>
	<path d="M295.595,190.579c-6.406-4.437-14.644-7.564-23.428-6.155c-4.472,0.704-3.691,15.032,0,15.779
		c3.708,0.747,10.851-2.479,17.268-0.243c6.409,2.208,15.286,12.325,15.286,9.123C304.721,205.893,301.995,195.023,295.595,190.579z
		"/>
</g>
</svg>
