<?xml version="1.0" encoding="utf-8"?>
<!-- Generator: Adobe Illustrator 16.0.0, SVG Export Plug-In . SVG Version: 6.00 Build 0)  -->
<!DOCTYPE svg PUBLIC "-//W3C//DTD SVG 1.1//EN" "http://www.w3.org/Graphics/SVG/1.1/DTD/svg11.dtd">
<svg version="1.1" id="Layer_1" xmlns="http://www.w3.org/2000/svg" xmlns:xlink="http://www.w3.org/1999/xlink" x="0px" y="0px"
	 width="350px" height="350px" viewBox="0 0 350 350" enable-background="new 0 0 350 350" xml:space="preserve">
<g>
	
		<radialGradient id="SVGID_1_" cx="175" cy="284.7344" r="97.3699" gradientTransform="matrix(1 0 0 0.1196 0 250.6907)" gradientUnits="userSpaceOnUse">
		<stop  offset="0" style="stop-color:#C5C5C5"/>
		<stop  offset="0.2694" style="stop-color:#CACACA;stop-opacity:0.7306"/>
		<stop  offset="0.6039" style="stop-color:#DADADA;stop-opacity:0.3961"/>
		<stop  offset="0.9717" style="stop-color:#F3F3F3;stop-opacity:0.0283"/>
		<stop  offset="1" style="stop-color:#F5F5F5;stop-opacity:0"/>
	</radialGradient>
	<ellipse fill="url(#SVGID_1_)" cx="175" cy="284.733" rx="103.983" ry="13.229"/>
	<g>
		<path d="M223.769,277.159v0.005c0-0.006,0-0.006-0.001-0.011L223.769,277.159z"/>
		<path d="M241.185,195.008c0.358,0.003,0.865,0.019,1.463,0.044c0.597,0.034,1.286,0.072,2.017,0.134
			c0.363,0.029,0.74,0.061,1.122,0.092c0.383,0.019,0.768,0.075,1.153,0.093c0.386,0.033,0.771,0.065,1.15,0.098
			c0.38,0.03,0.754,0.069,1.115,0.091c0.145,0.013,0.277,0.021,0.418,0.034c1.142-0.351,2.492-0.965,3.666-2.046
			c1.902-1.752,3.081-3.284,3.596-4.009c-0.072,0.037-0.144,0.077-0.217,0.112c-0.332,0.156-0.673,0.313-1.018,0.447
			c-0.694,0.27-1.402,0.491-2.08,0.646c-0.676,0.16-1.32,0.255-1.877,0.307c-0.56,0.044-1.029,0.05-1.362,0.034
			c-0.332-0.014-0.524-0.045-0.524-0.045s0.162-0.109,0.445-0.276c0.284-0.167,0.69-0.394,1.18-0.641
			c0.907-0.463,2.106-0.98,3.325-1.467c0.637-1.172,1.25-3.334,1.108-7.296c-0.278-7.8-7.869-13.302-12.813-16.714
			c-4.944-3.412-21.52-11.282-24.723-17.271c-3.203-5.989-0.487-9.123,0.209-10.307c0.696-1.184,3.134-2.298,4.526-2.298
			s2.438,1.114,2.438,1.114s-0.975,11.769,10.725,14.207c11.7,2.438,16.714-3.134,16.714-3.134s-2.089-0.696-3.83-1.532
			c-0.709-0.34-1.312-0.818-1.779-1.266c-0.153-0.041-0.306-0.082-0.461-0.123c-0.425-0.109-0.832-0.3-1.25-0.456
			c-0.405-0.188-0.804-0.397-1.185-0.618c-0.367-0.249-0.741-0.469-1.058-0.752c-0.16-0.137-0.321-0.266-0.471-0.402
			c-0.141-0.145-0.28-0.287-0.414-0.425c-0.269-0.274-0.484-0.573-0.684-0.839c-0.188-0.28-0.349-0.54-0.469-0.785
			c-0.134-0.233-0.212-0.463-0.286-0.639c-0.131-0.368-0.162-0.588-0.162-0.588s0.161,0.156,0.437,0.403
			c0.142,0.119,0.313,0.262,0.509,0.427c0.192,0.164,0.428,0.327,0.668,0.514c0.253,0.174,0.51,0.375,0.805,0.557
			c0.143,0.094,0.291,0.19,0.44,0.29c0.156,0.09,0.314,0.183,0.476,0.277c0.31,0.202,0.668,0.354,1.001,0.551
			c0.354,0.163,0.706,0.343,1.067,0.501c0.37,0.144,0.727,0.318,1.097,0.449c0.374,0.121,0.729,0.283,1.09,0.395
			c0.003,0.001,0.005,0.001,0.008,0.002c1.194-0.093,2.292-0.607,2.292-0.607s-3.272-1.184-4.247-3.134
			c-0.976-1.95-2.09-9.193-8.636-10.864c-6.547-1.671-9.263,0-9.263,0s-2.507-2.298-8.565-0.209
			c-6.059,2.089-10.307,9.192-8.845,16.783c1.463,7.591,14.973,19.778,21.729,24.096c6.755,4.318,11.143,12.953,7.382,16.854
			c-3.761,3.899-14.485-0.487-16.436-1.254c-1.95-0.766-8.009-11.282-10.934-12.327c-2.925-1.044-10.794-1.811-13.44-4.039
			c-2.155-1.815-5.511-8.478-6.683-10.89c-0.013,0.001-0.024,0.002-0.037,0.003c-0.269,0.004-0.546,0.009-0.835,0.014
			c-0.287-0.017-0.583-0.035-0.889-0.054c-0.608-0.054-1.254-0.116-1.907-0.249c-0.329-0.055-0.661-0.126-0.993-0.21
			c-0.334-0.079-0.672-0.16-1.005-0.266c-0.673-0.189-1.344-0.427-2.005-0.686c-0.658-0.265-1.31-0.55-1.931-0.876
			c-0.626-0.313-1.217-0.666-1.796-1.043c-0.269-0.188-0.532-0.372-0.791-0.553c-0.24-0.164-0.477-0.324-0.706-0.479
			c-0.223-0.176-0.479-0.263-0.707-0.396c-0.232-0.12-0.452-0.264-0.687-0.338c-0.228-0.091-0.449-0.172-0.66-0.262
			c-0.214-0.073-0.422-0.128-0.618-0.188c-0.195-0.067-0.383-0.098-0.557-0.137c-0.175-0.034-0.337-0.082-0.484-0.097
			c-0.295-0.038-0.531-0.08-0.692-0.084c-0.163-0.016-0.253-0.015-0.253-0.015c0,0,0.326-0.14,0.945-0.232
			c0.308-0.032,0.691-0.093,1.128-0.066c0.219,0.01,0.455,0.014,0.703,0.034c0.244,0.036,0.5,0.086,0.771,0.134
			c0.275,0.035,0.54,0.138,0.825,0.221c0.28,0.094,0.585,0.172,0.86,0.324c0.285,0.14,0.577,0.284,0.877,0.43
			c0.271,0.127,0.552,0.309,0.828,0.451c0.538,0.277,1.119,0.57,1.72,0.84c0.599,0.274,1.215,0.538,1.841,0.779
			c0.619,0.252,1.251,0.479,1.875,0.693c0.624,0.21,1.243,0.414,1.848,0.579c0.604,0.177,1.192,0.327,1.755,0.459
			c0.478,0.103,0.928,0.195,1.359,0.272c0.48-0.293,1.664-1.1,1.885-2.039c0.196-0.833,0.116-1.768,0.052-2.25
			c-0.053-0.052-0.101-0.101-0.155-0.155c-0.561-0.557-1.127-1.33-1.703-2.261c-0.559-0.924-1.199-1.941-1.853-3.112
			c-0.65-1.167-1.322-2.476-1.799-3.988c-0.217-0.762-0.43-1.561-0.487-2.418c-0.06-0.423-0.027-0.864-0.024-1.304
			c0.058-0.439,0.08-0.89,0.207-1.328c0.087-0.448,0.252-0.875,0.418-1.307l0.062-0.162l0.092-0.18l0.145-0.281
			c0.107-0.191,0.175-0.369,0.313-0.571c0.511-0.818,1.049-1.533,1.658-2.191c1.197-1.339,2.515-2.543,3.805-3.742
			c1.3-1.183,2.598-2.354,3.661-3.612c0.527-0.627,0.998-1.282,1.272-1.941c0.146-0.296,0.269-0.736,0.394-1.129
			c0.126-0.4,0.252-0.799,0.376-1.193c1-3.16,2.048-6.086,3.104-8.533c1.044-2.45,2.114-4.421,3.055-5.676
			c0.462-0.632,0.905-1.068,1.229-1.331c0.322-0.269,0.534-0.352,0.526-0.361c0.008,0.01-0.189,0.121-0.464,0.428
			c-0.281,0.298-0.633,0.787-1.013,1.447c-0.762,1.324-1.59,3.353-2.438,5.838c-0.42,1.244-0.844,2.604-1.281,4.046
			c-0.434,1.444-0.855,2.978-1.308,4.563c-0.11,0.397-0.222,0.798-0.334,1.202c-0.118,0.41-0.201,0.792-0.399,1.276
			c-0.156,0.481-0.42,0.863-0.647,1.285c-0.271,0.371-0.526,0.772-0.827,1.108c-1.164,1.405-2.483,2.615-3.776,3.816
			c-1.306,1.184-2.604,2.351-3.734,3.589l-0.42,0.464l-0.388,0.477c-0.28,0.316-0.469,0.625-0.697,0.932
			c-0.113,0.141-0.21,0.358-0.315,0.533l-0.155,0.276l-0.037,0.069l-0.021,0.034l-0.005,0.01l-0.048,0.116
			c-0.145,0.349-0.297,0.693-0.376,1.058c-0.12,0.354-0.145,0.728-0.21,1.089c-0.006,0.37-0.063,0.735-0.028,1.104
			c0.005,0.736,0.157,1.461,0.313,2.164c0.37,1.4,0.908,2.703,1.454,3.891c0.572,1.189,1.097,2.279,1.562,3.245
			c0.473,0.942,0.921,1.754,1.392,2.346c0.022,0.03,0.044,0.053,0.065,0.082c0.487,0.075,1.766,0.208,3.133-0.176
			c1.741-0.487,3.064-1.184,3.064-1.184s-1.114-2.437-0.418-5.153c0.696-2.716,2.438-8.009,5.502-10.655
			c2.443-2.111,2.849-4.218,2.913-4.985c-0.107-0.214-0.211-0.438-0.305-0.68c-0.21-0.529-0.404-1.114-0.571-1.741
			c-0.155-0.628-0.295-1.296-0.412-1.991c-0.06-0.405-0.103-0.673-0.124-1.093c-0.026-0.399-0.017-0.771-0.005-1.155
			c0.035-0.765,0.142-1.528,0.302-2.274c0.314-1.495,0.819-2.922,1.391-4.204c0.286-0.641,0.59-1.246,0.901-1.806
			c0.304-0.563,0.607-1.086,0.914-1.553c0.592-0.944,1.156-1.685,1.566-2.189c0.409-0.506,0.672-0.772,0.672-0.772
			s-0.541,1.365-1.354,3.413c-0.394,1.018-0.855,2.196-1.29,3.468c-0.441,1.269-0.87,2.627-1.175,3.995
			c-0.151,0.684-0.279,1.37-0.348,2.043c-0.035,0.334-0.063,0.677-0.07,0.984c-0.021,0.287-0.002,0.715,0.016,0.991
			c0.031,0.67,0.088,1.315,0.163,1.923c0.078,0.606,0.153,1.182,0.271,1.701c0.08,0.376,0.167,0.716,0.262,1.036
			c0.221,0.1,0.472,0.203,0.74,0.292c0.836,0.279,2.158,0.209,2.158,0.209s-0.695-2.229,0.558-5.501
			c0.966-2.521,3.413-5.532,4.489-6.784c-0.088-0.18-0.171-0.365-0.238-0.562c-0.084-0.219-0.155-0.447-0.21-0.683
			c-0.064-0.235-0.117-0.477-0.147-0.724c-0.036-0.247-0.079-0.498-0.081-0.75c-0.042-0.508-0.008-1.019,0.027-1.529
			c0.062-0.515,0.112-0.942,0.217-1.443c0.092-0.487,0.212-0.943,0.347-1.386c0.271-0.884,0.618-1.684,0.995-2.327
			c0.37-0.647,0.754-1.143,1.057-1.457c0.298-0.32,0.509-0.46,0.509-0.46s-0.076,0.239-0.189,0.642
			c-0.108,0.407-0.257,0.976-0.408,1.656c-0.069,0.34-0.146,0.707-0.227,1.096c-0.072,0.388-0.149,0.796-0.229,1.22
			c-0.071,0.422-0.155,0.864-0.221,1.299c-0.072,0.417-0.146,0.932-0.21,1.358c-0.055,0.436-0.102,0.872-0.111,1.3
			c-0.021,0.216,0.001,0.425,0.001,0.636c-0.005,0.212,0.02,0.416,0.041,0.618c0.011,0.205,0.039,0.403,0.079,0.595
			c0.022,0.17,0.059,0.332,0.101,0.49c0.619,0.115,1.75,0.125,3.462-0.603c2.786-1.184,4.179-3.204,4.179-3.204
			s-2.367-1.532-2.228-4.457c0.139-2.925,2.228-8.078,2.507-12.605c0.21-3.422,0.143-6.204,0.097-7.359
			c-0.142-0.17-0.296-0.344-0.485-0.511c-0.197-0.195-0.403-0.4-0.62-0.614c-0.235-0.198-0.479-0.405-0.731-0.619
			c-0.124-0.108-0.251-0.217-0.379-0.329c-0.056-0.047-0.146-0.131-0.174-0.15l-0.214-0.161c-0.145-0.108-0.29-0.217-0.438-0.328
			c-0.146-0.106-0.29-0.18-0.436-0.273c-0.279-0.182-0.605-0.353-0.927-0.529c-0.658-0.333-1.375-0.606-2.124-0.884
			c-0.753-0.274-1.548-0.528-2.363-0.843c-0.807-0.328-1.648-0.731-2.375-1.346c-0.174-0.162-0.352-0.319-0.516-0.487
			c-0.147-0.185-0.295-0.369-0.44-0.552c-0.25-0.392-0.485-0.803-0.64-1.137c-0.34-0.702-0.668-1.379-0.979-2.021
			c-0.319-0.632-0.615-1.227-0.914-1.757c-0.303-0.527-0.607-0.986-0.911-1.364c-0.305-0.379-0.615-0.668-0.902-0.87
			c-0.286-0.202-0.543-0.329-0.726-0.394c-0.185-0.067-0.284-0.103-0.284-0.103s0.106,0.003,0.306,0.01
			c0.102-0.001,0.223,0.022,0.368,0.051c0.149,0.019,0.31,0.073,0.491,0.142c0.358,0.136,0.785,0.36,1.195,0.708
			c0.418,0.337,0.851,0.767,1.253,1.275c0.822,1.006,1.605,2.277,2.397,3.625c0.201,0.364,0.393,0.626,0.591,0.903l0.346,0.375
			l0.391,0.34c0.553,0.426,1.231,0.76,1.972,1.052c0.736,0.305,1.526,0.579,2.312,0.885c0.79,0.3,1.553,0.693,2.269,1.109
			c0.69,0.414,1.411,0.976,1.886,1.463c0.561,0.538,0.975,1.071,1.398,1.562c0.317,0.451,0.625,0.845,0.856,1.249
			c0.092,0.037,0.189,0.092,0.285,0.176c0.372,0.325,0.697,0.79,0.697,0.79s0.695-0.789,0.464-2.229
			c-0.152-0.945-0.684-1.887-1.032-2.425c-0.193-0.061-0.393-0.129-0.599-0.222c-0.351-0.14-0.731-0.294-1.113-0.506
			c-0.392-0.192-0.785-0.435-1.182-0.71c-0.41-0.25-0.781-0.603-1.172-0.935c-0.058-0.054-0.076-0.06-0.167-0.154l-0.122-0.132
			l-0.245-0.268l-0.484-0.544c-0.317-0.37-0.637-0.735-0.937-1.111c-0.294-0.392-0.571-0.788-0.835-1.172
			c-0.265-0.384-0.512-0.762-0.74-1.122c-0.23-0.359-0.415-0.713-0.596-1.037c-0.358-0.647-0.629-1.204-0.802-1.606
			c-0.176-0.4-0.259-0.639-0.259-0.639s0.203,0.155,0.527,0.443c0.323,0.291,0.79,0.701,1.302,1.226
			c0.521,0.523,1.108,1.128,1.71,1.79c0.299,0.333,0.604,0.678,0.903,1.039c0.327,0.349,0.65,0.713,0.973,1.077l0.475,0.554
			l0.233,0.278l0.114,0.14l0.095,0.094c0.324,0.304,0.602,0.644,0.94,0.918c0.162,0.146,0.32,0.289,0.476,0.429
			c0.157,0.14,0.326,0.261,0.479,0.393c0.308,0.263,0.612,0.501,0.896,0.723c0.199,0.152,0.383,0.291,0.558,0.424
			c0.175-0.044,0.364-0.094,0.556-0.149c0.65-0.186,1.811-1.253,1.811-1.253s-2.971-0.279-4.503-2.461s-3.158-4.689-4.782-6.361
			c-1.119-1.151-2.833-2.434-3.791-3.122c-0.26-0.079-0.528-0.161-0.813-0.248c-0.392-0.124-0.803-0.254-1.229-0.39
			c-0.212-0.071-0.427-0.143-0.646-0.216l-0.163-0.056l-0.082-0.028l-0.011-0.003c0.019,0.006-0.048-0.017,0.041,0.015l-0.006-0.001
			l-0.021-0.006l-0.042-0.011l-0.342-0.097c-0.457-0.126-0.917-0.27-1.378-0.412c-0.448-0.121-0.873-0.178-1.303-0.288
			c-0.419-0.116-0.865-0.16-1.291-0.229c-0.214-0.036-0.424-0.071-0.63-0.105c-0.208-0.02-0.411-0.039-0.609-0.058
			c-0.396-0.034-0.777-0.102-1.129-0.106c-0.351-0.005-0.683-0.057-0.971-0.053c-0.293-0.007-0.551-0.014-0.761-0.019
			c-0.432,0.001-0.678,0.002-0.678,0.002s0.207-0.141,0.605-0.327c0.199-0.093,0.446-0.187,0.736-0.289
			c0.287-0.114,0.621-0.183,0.989-0.271c0.366-0.102,0.771-0.146,1.201-0.195c0.216-0.024,0.438-0.048,0.665-0.063
			c0.228,0.002,0.46,0.005,0.696,0.007c0.475,0.014,0.964,0.005,1.471,0.112c0.499,0.084,1.031,0.167,1.514,0.29
			c0.458,0.151,0.916,0.3,1.362,0.462l0.334,0.119l0.128,0.048l0.081,0.037l0.161,0.075c0.213,0.101,0.424,0.2,0.631,0.298
			c0.827,0.39,1.577,0.825,2.196,1.236c0.311,0.211,0.589,0.404,0.825,0.602c0.042,0.035,0.075,0.065,0.114,0.098
			c0.234,0.065,0.459,0.14,0.658,0.222c1.114,0.464,3.11,2.182,3.11,2.182s-0.743-6.5-3.854-9.192
			c-2.693-2.331-8.443-5.112-9.94-5.818c-0.104,0.166-0.222,0.33-0.353,0.493c-0.128,0.155-0.279,0.292-0.427,0.446
			c-0.157,0.135-0.326,0.267-0.498,0.399c-0.178,0.118-0.364,0.232-0.554,0.347c-0.192,0.099-0.391,0.196-0.593,0.288
			c-0.038,0.016-0.021,0.014-0.105,0.045l-0.069,0.026l-0.143,0.053l-0.285,0.104l-0.576,0.2c-0.388,0.125-0.774,0.252-1.161,0.361
			c-0.376,0.124-0.786,0.192-1.171,0.267c-0.776,0.137-1.503,0.26-2.128,0.284c-0.626,0.028-1.148,0.031-1.518,0.009
			c-0.37-0.023-0.582-0.056-0.582-0.056s0.188-0.111,0.517-0.27c0.328-0.165,0.798-0.393,1.364-0.627
			c0.57-0.227,1.21-0.516,1.913-0.758c0.352-0.127,0.71-0.236,1.089-0.386c0.373-0.145,0.76-0.274,1.145-0.407
			c0.376-0.118,0.752-0.236,1.122-0.352c0.166-0.066,0.334-0.126,0.502-0.183c0.155-0.073,0.31-0.144,0.468-0.208
			c0.147-0.079,0.292-0.155,0.434-0.23c0.133-0.087,0.263-0.172,0.39-0.255c0.227-0.17,0.438-0.344,0.611-0.532
			c-0.257-0.807-0.668-2.038-0.966-2.663c-0.464-0.975-1.856-2.739-1.856-2.739s-0.419,1.764-1.903,2.414
			c-1.485,0.65-6.269-2.229-9.936-1.95c-2.477,0.188-4.651,1.031-5.807,1.559c-0.021,0.031-0.042,0.058-0.063,0.089
			c-0.294,0.402-0.568,0.868-0.879,1.339c-0.161,0.232-0.285,0.497-0.435,0.752c-0.073,0.128-0.146,0.257-0.221,0.388
			c-0.089,0.145-0.179,0.291-0.269,0.438c-0.171,0.269-0.345,0.541-0.521,0.817c-0.227,0.285-0.495,0.58-0.758,0.865
			c-0.275,0.271-0.587,0.489-0.891,0.728c-0.322,0.195-0.659,0.386-0.989,0.552c-0.671,0.297-1.326,0.527-1.924,0.752
			c-0.297,0.116-0.601,0.221-0.873,0.353c-0.141,0.062-0.279,0.125-0.417,0.186l-0.104,0.046l-0.052,0.022l-0.025,0.011
			l-0.007,0.003c-0.042,0.024,0.05-0.031,0.038-0.024l-0.013,0.008l-0.208,0.12c-0.315,0.166-0.44,0.301-0.654,0.449
			c-0.201,0.177-0.399,0.356-0.571,0.56c-0.349,0.399-0.662,0.819-0.921,1.233c-0.521,0.827-0.891,1.587-1.141,2.125
			c-0.248,0.54-0.381,0.86-0.381,0.86s-0.012-0.347,0.061-0.95c0.035-0.301,0.091-0.667,0.187-1.082
			c0.098-0.414,0.215-0.884,0.414-1.379c0.185-0.5,0.433-1.035,0.788-1.563c0.169-0.27,0.379-0.528,0.604-0.79
			c0.241-0.257,0.575-0.554,0.811-0.708l0.194-0.14l0.012-0.009l0.059-0.035l0.028-0.016l0.056-0.031l0.112-0.061
			c0.15-0.082,0.304-0.164,0.456-0.246c0.306-0.177,0.621-0.308,0.94-0.445c0.638-0.28,1.26-0.503,1.825-0.763
			c0.275-0.135,0.533-0.277,0.79-0.424c0.222-0.183,0.482-0.331,0.687-0.521c0.19-0.204,0.391-0.378,0.594-0.584
			c0.198-0.26,0.395-0.517,0.587-0.77c0.188-0.248,0.371-0.491,0.552-0.729c0.197-0.249,0.369-0.506,0.574-0.729
			c0.155-0.182,0.309-0.353,0.462-0.521c-0.716-0.124-2.258-0.09-5.568,0.771c-5.71,1.486-8.867,4.086-9.517,6.825
			c-0.65,2.739-0.419,4.41-0.419,4.41s-2.785-0.139-4.735,1.393c-1.949,1.532-3.018,3.25-3.018,3.25s-3.528-0.604-7.243,2.182
			c-3.714,2.786-5.2,4.179-4.968,6.361s2.461,5.339,2.461,5.339s-0.974,1.208-0.742,2.461c0.132,0.713,0.532,1.449,0.854,1.958
			c0.478-0.045,0.96-0.083,1.446-0.078c0.497,0.004,0.999,0.024,1.507,0.104c0.254,0.031,0.511,0.083,0.768,0.146
			c0.255,0.049,0.516,0.159,0.773,0.239c0.26,0.121,0.519,0.221,0.771,0.395l0.604,0.386l0.599,0.394c0.2,0.13,0.41,0.334,0.613,0.5
			c0.119,0.11,0.241,0.21,0.361,0.317c0.253-0.291,0.576-0.554,0.971-0.723l0.321-0.111c0.112-0.022,0.225-0.04,0.336-0.056
			c0.221-0.012,0.446-0.015,0.649,0.032c0.214,0.027,0.395,0.106,0.58,0.174c0.206,0.085,0.299,0.148,0.454,0.224l0.834,0.456
			c0.28,0.151,0.555,0.341,0.825,0.517c0.548,0.347,1.055,0.739,1.542,1.162c-0.62-0.174-1.229-0.368-1.825-0.545
			c-0.302-0.086-0.588-0.184-0.89-0.273l-0.915-0.256c-0.138-0.039-0.331-0.109-0.424-0.122c-0.117-0.015-0.234-0.045-0.337-0.037
			c-0.108-0.011-0.2,0.017-0.291,0.032c-0.042,0.017-0.083,0.032-0.125,0.043c-0.04,0.022-0.078,0.044-0.117,0.062
			c-0.152,0.093-0.292,0.24-0.422,0.422c-0.063,0.094-0.122,0.193-0.173,0.301c-0.049,0.098-0.103,0.239-0.122,0.298l-0.478,1.52
			l-0.988-1.37c-0.039-0.054-0.232-0.244-0.356-0.374c-0.127-0.148-0.313-0.269-0.465-0.407c-0.169-0.133-0.299-0.269-0.494-0.406
			l-0.592-0.403l-0.586-0.411c-0.133-0.111-0.326-0.184-0.486-0.286c-0.193-0.073-0.366-0.174-0.578-0.231
			c-0.203-0.069-0.406-0.142-0.624-0.192c-0.426-0.12-0.875-0.207-1.327-0.292c-0.454-0.079-0.916-0.156-1.383-0.217
			c-0.041-0.005-0.084-0.01-0.125-0.015c-0.729,0.411-1.834,1.338-1.708,3.16c0.185,2.693,1.996,5.432,1.996,5.432
			s0.882-0.604,1.3-0.557s1.347,1.346,1.95,1.114s1.579-1.671,2.785-0.928c1.207,0.743,2.879,2.553,4.457,2.321
			c1.579-0.232,2.925-1.579,4.782-0.604c1.856,0.975,2.879,2.368,2.321,3.9c-0.557,1.532-4.086,3.296-6.222,3.203
			c-2.135-0.092-6.406-0.603-8.82,1.301c-1.679,1.323-2.705,3.765-3.175,5.133c0.064,0.001,0.127,0.003,0.192,0.004
			c0.692,0.063,1.447,0.137,2.185,0.271c0.725,0.139,1.486,0.265,2.241,0.431c0.759,0.159,1.528,0.321,2.299,0.482
			c0.766,0.171,1.531,0.342,2.286,0.51c0.752,0.173,1.491,0.342,2.207,0.507c0.716,0.159,1.407,0.313,2.063,0.458
			c0.657,0.137,1.277,0.274,1.851,0.385c0.575,0.112,1.101,0.201,1.57,0.278c0.466,0.048,0.883,0.13,1.218,0.13
			c0.172,0.008,0.324,0.016,0.458,0.021c0.131-0.009,0.243-0.018,0.334-0.025c0.188-0.013,0.288-0.021,0.288-0.021
			s-0.092,0.04-0.264,0.114c-0.089,0.036-0.198,0.08-0.327,0.132c-0.135,0.032-0.288,0.069-0.46,0.11
			c-0.35,0.093-0.774,0.13-1.269,0.178c-0.49,0.031-1.047,0.06-1.648,0.038c-1.205-0.019-2.602-0.141-4.079-0.35
			c-0.736-0.115-1.501-0.216-2.268-0.366c-0.769-0.138-1.544-0.301-2.317-0.466c-0.771-0.182-1.54-0.363-2.297-0.542
			c-0.759-0.174-1.487-0.389-2.206-0.571c-0.71-0.168-1.367-0.329-2.014-0.469c-0.646-0.077-1.26-0.229-1.833-0.253
			c-0.197-0.017-0.381-0.031-0.566-0.047c-0.495,0.083-1.026,0.252-1.527,0.567c-1.625,1.021-6.547,5.711-7.475,5.339
			c-0.929-0.372-1.114-5.386-0.882-7.196s0.465-3.11,0.465-3.11s-0.604-0.371-1.394-0.279c-0.173,0.021-0.353,0.038-0.528,0.054
			c-0.27,0.525-0.576,1.001-0.898,1.421c-0.352,0.449-0.712,0.841-1.048,1.153c-0.337,0.313-0.643,0.553-0.869,0.71
			c-0.226,0.16-0.37,0.236-0.37,0.236s0.028-0.163,0.1-0.427c0.069-0.264,0.185-0.632,0.338-1.056
			c0.158-0.422,0.356-0.899,0.59-1.39c0.109-0.247,0.231-0.498,0.358-0.746c0.108-0.25,0.251-0.5,0.358-0.741l0.161-0.349
			l0.04-0.087l0.011-0.021l0.006-0.011l0.001-0.002c0.011-0.031-0.002,0.006-0.01,0.031l0.014-0.042l0.07-0.208
			c0.038-0.116,0.083-0.224,0.125-0.337c0.128-1.675,0.279-4.113,0.252-6.037c-0.047-3.25-1.764-8.961-3.575-11.282
			c-1.811-2.321-8.496-7.149-10.632-7.196c-1.281-0.028-1.908,0.529-2.207,0.979c0.158,0.095,0.317,0.185,0.476,0.288
			c0.146,0.095,0.294,0.186,0.438,0.287l0.429,0.295c0.308,0.221,0.616,0.442,0.877,0.69c0.275,0.237,0.53,0.484,0.758,0.736
			c0.472,0.494,0.855,0.999,1.161,1.449c0.305,0.452,0.527,0.854,0.671,1.144c0.144,0.29,0.208,0.468,0.208,0.468
			s-0.173-0.083-0.45-0.243c-0.279-0.157-0.663-0.396-1.109-0.686c-0.442-0.293-0.939-0.652-1.462-1.028
			c-0.258-0.195-0.525-0.386-0.792-0.581c-0.266-0.204-0.534-0.388-0.803-0.571l-0.434-0.314c-0.143-0.101-0.278-0.211-0.417-0.316
			c-0.276-0.209-0.539-0.429-0.792-0.643c-0.205-0.175-0.395-0.349-0.58-0.521c-1.074,0.013-2.521,0.186-3.771,0.886
			c-1.719,0.963-2.343,4.317-2.551,5.994c0.049-0.017,0.098-0.038,0.146-0.053c0.298-0.087,0.6-0.175,0.904-0.263
			c0.306-0.085,0.614-0.171,0.923-0.257c0.375-0.103,0.684-0.132,1.031-0.199c0.337-0.065,0.68-0.085,1.021-0.108
			c0.341-0.033,0.682-0.038,1.02-0.019c0.338,0.008,0.672,0.016,1,0.069c0.327,0.044,0.653,0.07,0.964,0.152
			c0.629,0.121,1.219,0.313,1.763,0.517c0.546,0.2,1.037,0.447,1.476,0.693c0.88,0.49,1.527,1.022,1.947,1.419
			c0.422,0.398,0.616,0.667,0.616,0.667s-0.289-0.159-0.802-0.394c-0.512-0.234-1.25-0.536-2.144-0.817
			c-0.896-0.271-1.948-0.523-3.082-0.625c-0.565-0.053-1.151-0.085-1.743-0.063l-0.445,0.009l-0.447,0.043
			c-0.298,0.024-0.598,0.044-0.895,0.108c-0.284,0.053-0.621,0.084-0.864,0.151c-0.313,0.074-0.623,0.148-0.932,0.222
			c-0.31,0.07-0.616,0.139-0.92,0.208c-0.299,0.07-0.562,0.171-0.841,0.246c-0.088,0.027-0.174,0.05-0.262,0.075
			c-0.529,1.11-1.228,3.341-0.506,6.572c0.572,2.562,2.021,4.024,3.246,4.837c0.529,0.049,1.069,0.065,1.597,0.11
			c0.604,0.041,1.201,0.082,1.778,0.121c0.578,0.047,1.139,0.092,1.669,0.135c0.532,0.034,1.036,0.091,1.501,0.14
			c0.932,0.084,1.71,0.196,2.256,0.272c0.546,0.081,0.86,0.141,0.86,0.141s-0.309,0.084-0.851,0.19
			c-0.543,0.109-1.32,0.241-2.256,0.353c-0.936,0.111-2.029,0.205-3.207,0.247c-0.544,0.022-1.107,0.033-1.681,0.02
			c-0.361,1.17-0.859,3.426-0.178,5.505c0.976,2.972,4.597,6.546,4.597,6.546s-1.347,3.668-1.161,6.361
			c0.186,2.692-0.232,6.406-0.882,7.567c-0.649,1.161-1.439,2.786-1.439,2.786s0.743,0.371,2.089,0.139
			c0.49-0.084,0.979-0.175,1.403-0.256c0.083-0.061,0.165-0.122,0.252-0.179l0.108-0.075c-0.017,0.015,0.042-0.041,0.061-0.057
			l0.165-0.154l0.343-0.293c0.114-0.098,0.214-0.229,0.321-0.339c0.104-0.117,0.212-0.229,0.321-0.339
			c0.104-0.116,0.194-0.247,0.296-0.363c0.198-0.238,0.396-0.47,0.565-0.708c0.18-0.232,0.358-0.45,0.509-0.664
			c0.328-0.424,0.6-0.777,0.791-1.025c0.195-0.251,0.32-0.399,0.32-0.399s0.014,0.188-0.011,0.516
			c-0.027,0.327-0.086,0.789-0.231,1.327c-0.064,0.272-0.166,0.557-0.283,0.856c-0.107,0.304-0.258,0.61-0.434,0.921
			c-0.157,0.319-0.37,0.628-0.612,0.929c-0.124,0.148-0.222,0.315-0.372,0.451l-0.448,0.411l-0.232,0.199
			c-0.051,0.039-0.05,0.052-0.143,0.112l-0.111,0.071c-0.146,0.098-0.3,0.185-0.448,0.276c-0.182,0.112-0.362,0.209-0.544,0.311
			c-0.078,0.091-0.158,0.173-0.239,0.237c-0.696,0.557-1.578,1.347-1.578,1.347s1.3,1.114,2.274,1.764
			c0.976,0.65,1.485,1.393,1.485,1.393s-0.014,0.01-0.017,0.013c1.369,0.281,3.124,0.653,5.155,1.114l0.233,0.053l0.118,0.026
			l0.029,0.006l0.015,0.004c-0.041-0.015,0.073,0.023,0.066,0.021l0.058,0.021l0.231,0.084c0.103,0.054,0.207,0.113,0.309,0.175
			c0.358,0.245,0.611,0.534,0.846,0.819c0.446,0.57,0.82,1.129,1.281,1.636c0.454,0.51,0.977,0.972,1.563,1.384
			c0.284,0.214,0.603,0.395,0.913,0.589l0.485,0.271l0.062,0.034l0.023,0.014l0.128,0.054l0.272,0.116
			c0.378,0.184,0.707,0.253,1.039,0.348c0.325,0.102,0.735,0.146,1.101,0.224c0.384,0.053,0.775,0.09,1.166,0.133
			c0.397,0.024,0.797,0.048,1.198,0.071c1.613,0.056,3.275-0.029,4.93-0.187c0.829-0.068,1.657-0.164,2.48-0.268
			c0.411-0.059,0.82-0.117,1.229-0.175l0.606-0.099l0.074-0.013c-0.038,0,0.396-0.021,0.222-0.01l0.02,0.002l0.039,0.004
			c0.107,0.013,0.278,0.063,0.4,0.134l0.093,0.056l0.038,0.029l0.063,0.053c0.093,0.078,0.147,0.139,0.195,0.195
			c0.057,0.063,0.097,0.116,0.135,0.168c0.307,0.419,0.494,0.779,0.707,1.149c0.195,0.363,0.391,0.725,0.584,1.084
			c0.384,0.707,0.772,1.388,1.195,2.01c0.419,0.621,0.884,1.188,1.378,1.585c0.246,0.196,0.501,0.339,0.741,0.402
			c0.061,0.021,0.121,0.032,0.18,0.035l0.044,0.006l0.022,0.003h0.002l0.085-0.008l0.274-0.028l0.134-0.015l0.091-0.035
			c0.123-0.05,0.235-0.069,0.375-0.126c0.146-0.069,0.291-0.138,0.435-0.206c0.286-0.154,0.568-0.323,0.845-0.501
			c0.553-0.359,1.078-0.743,1.58-1.125c1-0.766,1.93-1.482,2.788-2.074c0.851-0.603,1.66-1.044,2.34-1.365
			c0.693-0.302,1.272-0.446,1.668-0.501c0.397-0.035,0.609-0.054,0.609-0.054s-0.205,0.049-0.59,0.143
			c-0.378,0.107-0.905,0.345-1.533,0.708c-0.617,0.391-1.33,0.912-2.105,1.577c-0.774,0.665-1.612,1.46-2.567,2.309
			c-0.476,0.427-0.984,0.866-1.546,1.299c-0.28,0.218-0.588,0.421-0.91,0.621c-0.171,0.093-0.342,0.186-0.516,0.281
			c-0.186,0.091-0.424,0.167-0.641,0.243l-0.167,0.055l-0.137,0.023l-0.272,0.043l-0.137,0.021
			c-0.041,0.003,0.068-0.001-0.096,0.007l-0.023,0l-0.047-0.002l-0.095-0.004c-0.127-0.002-0.251-0.018-0.371-0.045
			c-0.488-0.097-0.912-0.321-1.277-0.576c-0.734-0.517-1.266-1.177-1.763-1.844c-0.492-0.673-0.928-1.38-1.348-2.093
			c-0.206-0.352-0.412-0.706-0.621-1.062c-0.188-0.323-0.386-0.668-0.567-0.915l-0.373,0.065c-0.421,0.065-0.842,0.13-1.265,0.195
			c-0.847,0.116-1.697,0.228-2.553,0.304c-1.712,0.144-3.437,0.213-5.15,0.134c-0.428-0.022-0.857-0.061-1.282-0.095
			c-0.427-0.061-0.851-0.116-1.273-0.19c-0.428-0.105-0.829-0.158-1.27-0.307c-0.438-0.139-0.883-0.279-1.215-0.457l-0.269-0.125
			l-0.134-0.063l-0.063-0.031l-0.017-0.01l-0.033-0.02l-0.066-0.04l-0.529-0.319c-0.343-0.227-0.685-0.45-0.995-0.713
			c-0.635-0.502-1.206-1.071-1.685-1.676c-0.48-0.601-0.869-1.237-1.226-1.774c-0.176-0.259-0.363-0.487-0.538-0.633
			c-0.038-0.025-0.073-0.054-0.107-0.088l-0.221-0.101l-0.049-0.022l-0.012-0.003l-0.115-0.036l-0.228-0.071
			c-2.176-0.676-4.014-1.278-5.384-1.738c-0.576,0.305-1.636,0.729-3.116,0.759c-2.321,0.046-7.614-4.272-11.7-5.479
			s-10.307-1.486-12.906,1.671c-1.263,1.533-1.625,2.505-1.666,3.102c0.003-0.001,0.005-0.002,0.008-0.004
			c0.412-0.189,0.842-0.4,1.31-0.573c0.472-0.174,0.927-0.376,1.461-0.517c0.516-0.149,1.066-0.322,1.565-0.398l0.767-0.132
			l0.096-0.016l0.054-0.008l0.014-0.001l0.027-0.001l0.054-0.004l0.218-0.012c0.146-0.005,0.29-0.017,0.433-0.017
			c0.568,0.014,1.12,0.073,1.629,0.196c0.516,0.106,0.988,0.272,1.426,0.443c0.438,0.171,0.831,0.375,1.186,0.569
			c1.42,0.787,2.146,1.597,2.146,1.597s-0.254-0.077-0.696-0.211c-0.44-0.132-1.064-0.312-1.802-0.499
			c-0.37-0.089-0.771-0.175-1.189-0.254c-0.418-0.077-0.857-0.151-1.306-0.187c-0.449-0.05-0.905-0.049-1.357-0.037
			c-0.211,0.021-0.476,0.044-0.643,0.071l-0.764,0.146c-0.53,0.073-0.97,0.223-1.444,0.321c-0.462,0.096-0.95,0.249-1.409,0.357
			c-0.465,0.109-0.912,0.242-1.342,0.347c-0.175,0.043-0.344,0.085-0.511,0.126c-0.489,0.731-1.326,2.326-1.326,4.694
			c0,2.175,1.196,4.286,2.034,5.499c0.046-0.078,0.087-0.154,0.136-0.232c0.248-0.415,0.542-0.834,0.858-1.26
			c0.32-0.424,0.677-0.849,1.072-1.255c0.401-0.405,0.829-0.8,1.313-1.15c0.229-0.184,0.494-0.337,0.756-0.49
			c0.133-0.077,0.255-0.155,0.399-0.223l0.462-0.189c0.153-0.06,0.312-0.125,0.458-0.172l0.39-0.079
			c0.152-0.03,0.304-0.06,0.455-0.09c0.137-0.006,0.272-0.014,0.407-0.02c0.54-0.02,1.054-0.065,1.552-0.002
			c0.246,0.022,0.486,0.045,0.718,0.067c0.23,0.034,0.453,0.093,0.665,0.137c0.424,0.071,0.801,0.228,1.127,0.351
			c0.325,0.129,0.593,0.289,0.805,0.418c0.211,0.139,0.363,0.262,0.46,0.356c0.1,0.087,0.141,0.146,0.141,0.146
			s-0.065-0.03-0.192-0.065c-0.118-0.045-0.307-0.078-0.535-0.131c-0.231-0.042-0.515-0.078-0.833-0.107
			c-0.326-0.012-0.68-0.041-1.076-0.018c-0.196,0.01-0.397,0.003-0.607,0.025c-0.21,0.023-0.427,0.048-0.65,0.073
			c-0.442,0.022-0.91,0.145-1.39,0.217c-0.11,0.018-0.222,0.037-0.333,0.056l-0.008,0.002l-0.046,0.014l-0.095,0.028l-0.189,0.057
			l-0.381,0.114l-0.28,0.143l-0.279,0.133c-0.097,0.054-0.201,0.128-0.304,0.188c-0.206,0.125-0.414,0.247-0.608,0.411
			c-0.407,0.283-0.786,0.628-1.166,0.961c-0.183,0.178-0.367,0.352-0.553,0.521c-0.177,0.181-0.353,0.359-0.524,0.535
			c-0.339,0.36-0.675,0.705-0.978,1.051c-0.141,0.156-0.276,0.306-0.409,0.453c0.036,0.043,0.063,0.073,0.063,0.073
			s-1.068,2.088,0.139,4.131c1.208,2.043,9.286,3.9,11.515,3.343c0.795-0.198,1.429-0.378,1.925-0.528
			c0.032-0.069,0.061-0.135,0.096-0.206c0.13-0.286,0.315-0.57,0.503-0.881c0.181-0.313,0.435-0.607,0.681-0.923
			c0.118-0.162,0.264-0.309,0.42-0.453c0.15-0.146,0.306-0.295,0.467-0.44c0.148-0.154,0.357-0.269,0.544-0.396
			c0.206-0.128,0.357-0.235,0.611-0.379c0.375-0.156,0.717-0.327,1.118-0.458c0.398-0.129,0.807-0.269,1.181-0.348
			c0.378-0.084,0.743-0.17,1.094-0.217c0.35-0.048,0.68-0.098,0.989-0.117c0.616-0.046,1.134-0.043,1.498-0.024
			c0.363,0.018,0.573,0.053,0.573,0.053s-0.184,0.109-0.505,0.272c-0.321,0.167-0.78,0.388-1.328,0.638
			c-0.274,0.12-0.57,0.25-0.884,0.389c-0.311,0.131-0.638,0.271-0.977,0.415c-0.347,0.133-0.656,0.295-1,0.428
			c-0.338,0.145-0.714,0.333-1.074,0.493l-0.408,0.252c-0.142,0.099-0.304,0.148-0.437,0.275c-0.271,0.233-0.575,0.407-0.831,0.656
			c-0.257,0.241-0.537,0.443-0.768,0.684c-0.026,0.026-0.053,0.048-0.079,0.073c0.44,0.608,1.771,2.208,3.647,2.32
			c1.905,0.115,8.245,0.479,10.461,0.606c0.049-0.038,0.09-0.074,0.141-0.112c0.228-0.191,0.468-0.389,0.722-0.581
			c0.247-0.203,0.494-0.419,0.758-0.622c0.263-0.204,0.507-0.438,0.768-0.65l0.196-0.158l0.093-0.075l0.019-0.018l0.048-0.046
			c0.125-0.124,0.258-0.24,0.386-0.358c0.256-0.237,0.519-0.46,0.775-0.672c0.26-0.213,0.52-0.41,0.711-0.606
			c0.209-0.193,0.417-0.374,0.615-0.538c0.204-0.163,0.394-0.313,0.544-0.464c0.152-0.149,0.303-0.272,0.425-0.378
			c0.124-0.104,0.213-0.189,0.276-0.25c0.067-0.06,0.103-0.092,0.103-0.092s-0.006,0.046-0.016,0.134
			c-0.016,0.084-0.024,0.225-0.076,0.375c-0.046,0.156-0.099,0.35-0.18,0.564c-0.039,0.108-0.076,0.227-0.126,0.346
			c-0.059,0.114-0.12,0.234-0.185,0.359c-0.134,0.25-0.287,0.518-0.458,0.8c-0.169,0.297-0.371,0.547-0.586,0.799
			c-0.214,0.256-0.438,0.517-0.677,0.771c-0.119,0.127-0.236,0.259-0.36,0.383l-0.127,0.127l-0.106,0.09l-0.213,0.18
			c-0.293,0.229-0.569,0.48-0.88,0.674c-0.307,0.199-0.609,0.394-0.915,0.559c-0.178,0.09-0.345,0.165-0.517,0.246
			c0.573,0.95,1.831,2.512,4.028,2.831c1.901,0.276,5.195,0.093,7.558-0.101c0.056-0.037,0.109-0.072,0.167-0.109
			c0.361-0.266,0.742-0.54,1.141-0.812c0.375-0.31,0.761-0.624,1.162-0.932c0.393-0.317,0.756-0.687,1.144-1.023
			c0.401-0.357,0.803-0.713,1.198-1.064c0.396-0.352,0.795-0.686,1.184-1.007c0.778-0.64,1.525-1.216,2.19-1.683
			c0.641-0.487,1.271-0.821,1.689-1.052c0.424-0.23,0.674-0.342,0.674-0.342s-0.164,0.231-0.464,0.601
			c-0.15,0.184-0.329,0.409-0.545,0.65c-0.215,0.236-0.438,0.543-0.704,0.849c-0.513,0.631-1.141,1.336-1.836,2.067
			c-0.348,0.365-0.71,0.74-1.089,1.109c-0.189,0.184-0.38,0.37-0.571,0.557l-0.146,0.138l-0.137,0.123l-0.311,0.282
			c-0.428,0.361-0.827,0.755-1.279,1.072c-0.199,0.137-0.397,0.271-0.596,0.403c0.186,0.208,0.767,0.753,2.338,1.575
			c1.436,0.751,2.446,1.357,2.928,1.654c0.539-0.077,1.134-0.16,1.781-0.243c1.433-0.187,3.105-0.405,4.896-0.639
			c0.443-0.063,0.894-0.126,1.349-0.19c0.443-0.083,0.884-0.172,1.334-0.244l0.042-0.007l0.011-0.002l0.058-0.019l0.17-0.056
			l0.342-0.11l0.687-0.224c0.452-0.154,0.851-0.357,1.28-0.532c0.842-0.322,1.726-0.748,2.581-1.131
			c0.858-0.397,1.703-0.787,2.52-1.165c1.635-0.77,3.16-1.489,4.467-2.105c0.654-0.311,1.26-0.587,1.783-0.851
			c0.523-0.266,1.003-0.469,1.373-0.667c0.74-0.398,1.184-0.621,1.184-0.621s-0.351,0.329-1,0.898
			c-0.329,0.279-0.745,0.583-1.226,0.936c-0.476,0.362-1.026,0.744-1.642,1.139c-0.609,0.404-1.269,0.846-1.993,1.262
			c-0.722,0.424-1.467,0.9-2.278,1.319c-0.811,0.421-1.617,0.913-2.495,1.31c-0.876,0.413-1.724,0.851-2.685,1.237
			c-0.47,0.181-0.947,0.397-1.41,0.545l-0.689,0.208l-0.344,0.104l-0.171,0.052l-0.086,0.026l-0.07,0.017l-0.011,0.001l-0.023,0.004
			l-0.046,0.007c-0.491,0.078-0.982,0.149-1.462,0.204c-0.473,0.038-0.938,0.075-1.397,0.112c-0.916,0.078-1.797,0.087-2.634,0.118
			c-0.835,0.021-1.626,0.023-2.354,0.015c-0.578-0.004-1.116-0.017-1.611-0.032c-0.122,0.867-0.164,2.748,1.393,4.167
			c2.09,1.903,11.607,6.128,11.607,6.128s1.067,3.437,2.507,5.201c0.686,0.84,1.391,1.626,1.943,2.221
			c0.111,0.043,0.222,0.086,0.335,0.132c0.357,0.146,0.724,0.304,1.091,0.474c0.367,0.179,0.739,0.317,1.11,0.478
			c0.367,0.165,0.734,0.327,1.092,0.504l0.267,0.129c0.01,0.006,0.073,0.033,0.037,0.022l0.071,0.027l0.141,0.055
			c0.187,0.075,0.371,0.148,0.553,0.222c0.36,0.147,0.707,0.302,1.033,0.452c0.321,0.126,0.623,0.249,0.903,0.373
			c0.281,0.119,0.536,0.255,0.772,0.348c0.235,0.095,0.438,0.194,0.608,0.273c0.341,0.163,0.536,0.256,0.536,0.256
			s-0.216,0.048-0.593,0.071c-0.376,0.021-0.916,0.054-1.564-0.011c-0.324-0.027-0.679-0.063-1.051-0.114
			c-0.353-0.069-0.724-0.147-1.104-0.238c-0.189-0.048-0.382-0.096-0.577-0.145l-0.146-0.038l-0.073-0.019l-0.104-0.036
			l-0.292-0.115c-0.394-0.15-0.788-0.319-1.183-0.486c-0.389-0.18-0.793-0.339-1.146-0.552c-0.362-0.2-0.715-0.406-1.052-0.612
			c-0.27-0.161-0.524-0.324-0.769-0.488c-3.134-0.117-8.808-0.125-10.59,1.229c-2.507,1.903-5.152,4.271-4.038,12.024
			c1.113,7.753,7.103,18.246,7.195,21.403s-5.153,9.239-7.289,9.424c-2.135,0.186-11.234-4.781-16.62-2.367
			s-7.336,6.546-7.29,10.771c0.026,2.426,1.601,4.529,3.349,6.216c0.063-0.185,0.132-0.374,0.206-0.571
			c0.185-0.484,0.39-1.009,0.647-1.546c0.25-0.54,0.52-1.111,0.851-1.677c0.155-0.289,0.328-0.574,0.514-0.858
			c0.177-0.288,0.365-0.576,0.576-0.854c0.201-0.284,0.408-0.57,0.645-0.838l0.345-0.411l0.393-0.407
			c0.133-0.13,0.269-0.276,0.399-0.392l0.388-0.328l0.193-0.164l0.049-0.04l0.044-0.035l0.016-0.01l0.029-0.021l0.12-0.078
			l0.478-0.308c0.316-0.207,0.672-0.332,1.003-0.49c0.349-0.107,0.689-0.236,1.034-0.301c0.687-0.142,1.359-0.194,1.981-0.161
			c0.625,0.007,1.202,0.112,1.723,0.223c0.521,0.109,0.982,0.265,1.383,0.41c0.401,0.148,0.737,0.307,1.011,0.442
			c0.544,0.274,0.825,0.481,0.825,0.481s-0.341-0.074-0.928-0.167c-0.294-0.048-0.651-0.088-1.056-0.138
			c-0.406-0.037-0.862-0.066-1.354-0.081c-0.491-0.003-1.02,0.01-1.563,0.071c-0.272,0.022-0.548,0.07-0.822,0.134
			c-0.279,0.047-0.549,0.139-0.825,0.215c-0.275,0.083-0.535,0.209-0.807,0.309c-0.247,0.151-0.521,0.26-0.758,0.432l-0.357,0.253
			l-0.091,0.063l-0.022,0.016l-0.001,0.001l-0.038,0.034l-0.191,0.167l-0.383,0.334c-0.122,0.111-0.212,0.221-0.32,0.33
			l-0.319,0.322l-0.313,0.365c-0.213,0.238-0.419,0.486-0.614,0.741c-0.398,0.502-0.777,1.016-1.131,1.527
			c-0.357,0.507-0.697,1.009-1.012,1.489c-0.313,0.487-0.607,0.946-0.88,1.371c-0.159,0.253-0.308,0.489-0.45,0.717
			c1.105,0.991,2.217,1.818,2.999,2.451c2.183,1.765,6.732,2.089,9.239,2.321s9.704-3.203,13.557-4.178
			c3.854-0.976,16.11-1.765,16.11-1.765s1.021-3.807,2.786-4.41c1.764-0.604,4.039-2.508,5.199-3.529
			c1.161-1.021,1.579-1.811,1.579-1.811s-1.068-3.9-1.114-5.479c-0.01-0.327-0.018-0.632-0.023-0.917
			c-0.185-0.257-0.368-0.513-0.559-0.759c-0.347-0.384-0.678-0.77-0.996-1.153c-0.353-0.35-0.691-0.688-1.014-1.009
			c-0.333-0.312-0.673-0.578-0.974-0.853c-0.313-0.253-0.618-0.463-0.881-0.673c-0.277-0.188-0.519-0.352-0.718-0.487
			c-0.406-0.252-0.663-0.395-0.663-0.395s0.281-0.003,0.783,0.087c0.24,0.06,0.547,0.111,0.879,0.224
			c0.325,0.122,0.713,0.237,1.101,0.431c0.38,0.202,0.815,0.398,1.233,0.672c0.404,0.287,0.844,0.586,1.269,0.93
			c0.397,0.371,0.805,0.764,1.208,1.172c0.103,0.115,0.196,0.239,0.293,0.36c0.446,0.2,0.957,0.481,1.336,0.838
			c0.836,0.79,2.275,1.95,2.275,1.95s0.557-4.179-0.976-5.571c-0.748-0.68-1.449-1.447-1.974-2.056
			c-0.288-0.184-0.578-0.366-0.855-0.557c-0.196-0.133-0.39-0.265-0.582-0.395c-0.201-0.122-0.4-0.243-0.597-0.362
			c-0.785-0.474-1.487-0.979-2.109-1.387s-1.123-0.79-1.479-1.055c-0.356-0.266-0.552-0.435-0.552-0.435s0.256,0.037,0.688,0.133
			c0.432,0.096,1.042,0.263,1.761,0.497c0.362,0.112,0.75,0.246,1.147,0.415c0.4,0.163,0.821,0.34,1.251,0.534
			c0.435,0.186,0.874,0.399,1.307,0.667c0.438,0.252,0.873,0.522,1.311,0.791l0.324,0.208l0.04,0.025l0.021,0.014l0.01,0.006
			l0.042,0.03l0.071,0.06l0.143,0.117c0.189,0.159,0.377,0.317,0.563,0.475c0.055,0.048,0.106,0.104,0.16,0.154
			c0.064-1.16,0.122-3.755-0.552-5.03c-0.316-0.599-0.612-1.128-0.864-1.565c-0.428-0.259-0.849-0.514-1.256-0.761
			c-0.831-0.506-1.605-0.991-2.261-1.432c-0.661-0.426-1.201-0.814-1.578-1.089c-0.376-0.274-0.587-0.446-0.587-0.446
			s0.269,0.038,0.724,0.146c0.458,0.104,1.103,0.275,1.857,0.529c0.377,0.127,0.786,0.266,1.212,0.429
			c0.423,0.168,0.865,0.354,1.32,0.555c0.458,0.193,0.915,0.433,1.382,0.669c0.003,0.002,0.007,0.005,0.011,0.006
			c1.09-0.064,2.593-0.111,4.033-0.012c2.692,0.185,5.152,0.324,5.152,0.324s0.31-0.009,0.778,0.028l-0.113-0.245
			c-0.223-0.462-0.388-0.922-0.654-1.379c-0.261-0.458-0.528-0.912-0.78-1.375l-0.19-0.347l-0.048-0.086l-0.006-0.011l-0.002-0.003
			c0.003,0.005,0.007,0.011,0.014,0.024l-0.013-0.02l-0.027-0.037l-0.106-0.152l-0.424-0.605c-0.135-0.205-0.317-0.378-0.472-0.569
			c-0.167-0.183-0.31-0.385-0.498-0.549c-0.353-0.349-0.693-0.708-1.087-1.018c-0.369-0.334-0.785-0.618-1.188-0.915
			c-0.419-0.276-0.839-0.554-1.277-0.806c-0.431-0.262-0.878-0.499-1.33-0.728c-0.456-0.221-0.916-0.439-1.389-0.629
			c-0.232-0.101-0.47-0.193-0.709-0.281c-0.235-0.097-0.474-0.186-0.714-0.27c-0.474-0.171-0.977-0.331-1.433-0.45l-0.533-0.139
			l-0.046-0.502c-0.092-0.993-0.163-1.989-0.228-2.985l-0.104-1.494c-0.019-0.235-0.018-0.529-0.051-0.716
			c-0.012-0.208-0.072-0.422-0.129-0.638c-0.075-0.214-0.144-0.434-0.247-0.645c-0.096-0.214-0.202-0.426-0.318-0.637
			c-0.226-0.424-0.491-0.834-0.776-1.234c-0.281-0.401-0.582-0.796-0.895-1.182c-0.315-0.384-0.633-0.771-0.976-1.137
			c0.826,0.572,1.598,1.226,2.31,1.955c0.704,0.733,1.365,1.538,1.815,2.537c0.102,0.257,0.206,0.514,0.262,0.802
			c0.078,0.302,0.095,0.509,0.144,0.768l0.228,1.48c0.127,0.812,0.245,1.625,0.356,2.439c0.374,0.09,0.737,0.187,1.104,0.297
			c0.522,0.154,1.039,0.328,1.543,0.535c0.509,0.195,1.006,0.421,1.501,0.65c0.492,0.238,0.979,0.486,1.454,0.764
			c0.242,0.128,0.476,0.275,0.702,0.431c0.229,0.154,0.464,0.297,0.686,0.462c0.44,0.334,0.89,0.654,1.298,1.034
			c0.428,0.353,0.812,0.759,1.195,1.163c0.198,0.195,0.354,0.433,0.532,0.648c0.166,0.226,0.356,0.432,0.501,0.674l0.446,0.713
			l0.111,0.178l0.027,0.045l0.014,0.022l0.029,0.055l0.043,0.088l0.174,0.355c0.234,0.472,0.452,0.952,0.677,1.43
			c0.226,0.475,0.385,1.023,0.578,1.53l0.271,0.773c0.012,0.038,0.021,0.077,0.031,0.116c1.369,0.3,2.97,1.013,3.278,2.708
			c0.557,3.064,2.229,5.85,5.015,7.869c2.785,2.02,5.432,2.994,7.172,5.084c1.741,2.089,4.04,5.223,4.04,5.223
			s3.275-0.501,5.153,0.41c0.368-0.039,0.756-0.08,1.169-0.123c0.478-0.043,0.979-0.083,1.497-0.113
			c0.519-0.032,1.045-0.118,1.584-0.161c0.537-0.055,1.084-0.095,1.631-0.136l0.103-0.006l0.025-0.002l0.013-0.001l0.017-0.003
			l0.207-0.035l0.414-0.07c0.276-0.044,0.551-0.087,0.824-0.13c0.501-0.125,0.98-0.242,1.463-0.349
			c0.489-0.146,0.962-0.286,1.41-0.419c0.442-0.157,0.873-0.285,1.269-0.416c0.792-0.283,1.451-0.519,1.913-0.684
			c0.464-0.174,0.738-0.27,0.738-0.27s-0.192,0.216-0.567,0.554c-0.375,0.335-0.937,0.787-1.66,1.261
			c-0.364,0.232-0.769,0.47-1.203,0.714c-0.444,0.224-0.925,0.441-1.425,0.664c-0.527,0.186-1.091,0.381-1.655,0.541
			c-0.271,0.055-0.544,0.11-0.818,0.165l-0.413,0.077l-0.206,0.039l-0.052,0.011l-0.062,0.008l-0.014,0.001l-0.026,0.002
			l-0.107,0.008c-0.573,0.035-1.146,0.071-1.712,0.091c-0.563,0.017-1.121,0.054-1.655,0.024c-0.401-0.024-0.789-0.052-1.166-0.082
			c1.116,1.14,1.936,2.693,2.714,4.442c1.045,2.345,3.528,6.685,2.6,10.585c-0.928,3.9-4.271,5.571-5.756,7.8
			c-1.486,2.229-2.229,4.457-2.229,4.457s-4.271,0-5.2,4.829c-0.929,4.828,0.929,7.613,2.785,8.913c1.857,1.3,6.129,1.3,7.429,0.743
			c0.584-0.251,1.241-0.538,1.79-0.778c-0.167-0.346-0.325-0.711-0.458-1.095c-0.146-0.402-0.299-0.785-0.406-1.24
			c-0.098-0.437-0.24-0.899-0.28-1.309c-0.023-0.203-0.04-0.406-0.057-0.607l-0.024-0.299l-0.015-0.202l0.014-0.163
			c0.018-0.217,0.032-0.43,0.057-0.635c0.02-0.204,0.039-0.405,0.107-0.601c0.105-0.39,0.208-0.749,0.394-1.059
			c0.143-0.319,0.364-0.569,0.544-0.781c0.194-0.206,0.389-0.358,0.557-0.462c0.168-0.106,0.313-0.166,0.413-0.199
			c0.096-0.037,0.152-0.038,0.15-0.041c0,0-0.041,0.038-0.1,0.122c-0.065,0.073-0.137,0.199-0.229,0.352
			c-0.09,0.15-0.169,0.354-0.255,0.568c-0.065,0.232-0.146,0.474-0.172,0.762c-0.063,0.271-0.053,0.584-0.061,0.902
			c-0.014,0.155,0,0.323,0.024,0.495c0.021,0.171,0.031,0.343,0.046,0.518l0.006,0.088l0.002,0.008l0.004,0.018l0.008,0.036
			l0.016,0.073l0.06,0.294c0.041,0.198,0.082,0.397,0.116,0.601c0.077,0.402,0.204,0.736,0.294,1.111
			c0.074,0.359,0.226,0.757,0.325,1.137c0.057,0.191,0.11,0.382,0.158,0.572c0.057,0.188,0.114,0.375,0.17,0.559
			c0.017,0.061,0.032,0.115,0.049,0.175c0.712,0.524,2.815,1.824,6.224,1.824c1.477,0,3.063-0.25,4.592-0.723
			c0.018-0.215,0.036-0.434,0.056-0.657c0.034-0.37,0.07-0.753,0.106-1.143c0.021-0.389,0.09-0.749,0.104-1.166l0.047-0.611
			l0.027-0.305l0.008-0.075c0,0.031,0-0.031,0-0.042v-0.138c-0.012-0.366,0.039-0.736,0.009-1.086
			c-0.041-0.347-0.011-0.702-0.079-1.021c-0.048-0.323-0.07-0.643-0.144-0.924c-0.054-0.289-0.106-0.559-0.177-0.791
			c-0.06-0.238-0.123-0.444-0.179-0.616c-0.108-0.341-0.192-0.545-0.192-0.545s0.049,0.025,0.129,0.083
			c0.074,0.063,0.212,0.146,0.34,0.281c0.136,0.131,0.311,0.289,0.466,0.501c0.083,0.106,0.171,0.218,0.264,0.335
			c0.078,0.128,0.161,0.262,0.247,0.401c0.184,0.279,0.314,0.609,0.461,0.962c0.164,0.35,0.224,0.746,0.331,1.151
			c0.06,0.203,0.071,0.413,0.092,0.626c0.021,0.214,0.039,0.43,0.052,0.649l0.01,0.164c0.001,0.039,0.007,0.028,0.003,0.109
			l-0.002,0.076l-0.012,0.305l-0.032,0.612c-0.022,0.402-0.101,0.85-0.163,1.263c-0.049,0.364-0.135,0.698-0.216,1.029
			c2.275-0.975,4.274-2.478,5.367-4.465c1.896-3.448,1.872-13.617,2.899-16.688c-0.52-0.281-1.093-0.664-1.648-1.157
			c-0.146-0.124-0.287-0.258-0.423-0.401c-0.139-0.138-0.279-0.284-0.413-0.45l-0.204-0.243l-0.172-0.229
			c-0.106-0.136-0.253-0.356-0.363-0.55c-0.216-0.396-0.377-0.781-0.501-1.165c-0.131-0.38-0.227-0.758-0.305-1.122
			c-0.156-0.729-0.231-1.415-0.261-2.006c-0.026-0.592-0.008-1.087,0.022-1.437c0.028-0.349,0.068-0.55,0.068-0.55
			s0.104,0.177,0.259,0.487c0.157,0.31,0.364,0.753,0.597,1.282c0.229,0.529,0.478,1.146,0.735,1.794
			c0.131,0.316,0.265,0.645,0.401,0.978c0.141,0.323,0.282,0.645,0.438,0.918c0.078,0.142,0.136,0.245,0.26,0.414l0.158,0.238
			l0.147,0.203c0.188,0.269,0.412,0.556,0.619,0.817c0.36,0.452,0.715,0.865,1.045,1.243c0.996-1.88,0.252-3.382,1.235-3.71
			c1.045-0.348,2.785,0.905,2.785,0.905s0.79-1.263,0.699-2.748c-0.077-0.08-0.154-0.154-0.231-0.238
			c-0.371-0.41-0.747-0.865-1.141-1.336c-0.187-0.24-0.375-0.479-0.547-0.724c-0.14-0.133-0.298-0.364-0.469-0.521
			c-0.184-0.16-0.342-0.346-0.537-0.482c-0.18-0.155-0.361-0.298-0.541-0.42c-0.348-0.266-0.671-0.468-0.9-0.623
			c-0.236-0.154-0.371-0.242-0.371-0.242s0.157-0.052,0.446-0.079c0.141-0.007,0.321-0.035,0.518-0.017
			c0.199,0.01,0.431,0.015,0.673,0.069c0.123,0.024,0.251,0.051,0.383,0.079c0.13,0.043,0.263,0.089,0.4,0.136
			c0.28,0.085,0.551,0.248,0.836,0.411c0.148,0.072,0.272,0.191,0.405,0.301c0.141,0.119,0.253,0.203,0.411,0.366
			c0.111,0.121,0.216,0.251,0.322,0.378c0.467-0.28,1.115-0.695,1.524-1.064c0.696-0.627,1.602-1.114,1.602-1.114
			s-1.462-1.741-2.298-2.158c-0.46-0.23-0.999-0.604-1.396-0.898c-0.126,0.015-0.254,0.038-0.381,0.049
			c-0.318,0.039-0.631,0.074-0.931,0.129c-0.301,0.043-0.589,0.08-0.855,0.126c-0.538,0.072-0.997,0.141-1.323,0.173
			c-0.326,0.038-0.523,0.05-0.523,0.05s0.133-0.142,0.392-0.354c0.261-0.211,0.641-0.494,1.134-0.777
			c0.243-0.147,0.52-0.285,0.817-0.419c0.294-0.143,0.621-0.264,0.97-0.369c0.338-0.125,0.72-0.199,1.111-0.26
			c0.275-0.068,0.595-0.061,0.912-0.052c0.163-0.135,0.31-0.269,0.421-0.393c0.627-0.696,1.185-2.02,1.185-2.02
			s-2.925-0.07-4.109-0.696c-1.184-0.627-1.74-0.349-1.74-0.349s1.253-4.526,0.348-6.964s-11.003-9.054-14.485-13.022
			c-3.482-3.97-2.089-18.595-2.089-18.595s2.507,0.767,5.85,0.767s5.223-0.487,5.223-0.487s-0.905-0.767-1.114-1.045
			c-0.022-0.029-0.045-0.072-0.069-0.117c-0.013-0.007-0.026-0.012-0.04-0.019c-0.521-0.253-1.029-0.604-1.498-0.995
			c-0.941-0.785-1.654-1.791-2.039-2.62c-0.193-0.416-0.315-0.782-0.381-1.047c-0.069-0.264-0.081-0.426-0.081-0.426
			s0.136,0.086,0.354,0.239c0.218,0.152,0.518,0.372,0.863,0.635c0.34,0.267,0.729,0.574,1.127,0.908
			c0.201,0.165,0.407,0.335,0.61,0.513c0.214,0.164,0.408,0.357,0.624,0.522c0.208,0.175,0.415,0.35,0.62,0.521
			c0.206,0.171,0.403,0.346,0.604,0.503c0.135,0.115,0.266,0.222,0.396,0.328c1.451,0.185,3.626,0.295,5.316-0.339
			c2.786-1.045,3.69-3.064,3.69-3.064s-1.025-0.147-1.727-0.399c-0.727,0.057-1.493,0.049-2.257-0.013
			c-1.639-0.133-3.23-0.564-4.365-1.043c-0.568-0.238-1.026-0.479-1.339-0.666c-0.313-0.185-0.479-0.316-0.479-0.316
			S240.826,195.004,241.185,195.008z M189.583,67.611c0.33-0.288,0.672-0.571,1.046-0.813c0.182-0.129,0.374-0.242,0.571-0.349
			c0.195-0.11,0.39-0.226,0.6-0.312c0.208-0.089,0.411-0.195,0.626-0.27l0.657-0.204c0.221-0.065,0.451-0.094,0.679-0.142
			c0.227-0.052,0.458-0.077,0.691-0.085s0.468-0.046,0.701-0.028l0.701,0.059c0.237,0.008,0.461,0.08,0.691,0.124
			c0.237,0.06,0.439,0.083,0.706,0.175c0.409,0.146,0.791,0.241,1.23,0.466c0.212,0.101,0.432,0.196,0.637,0.303l0.593,0.337
			c0.393,0.227,0.763,0.49,1.13,0.754c0.359,0.275,0.707,0.564,1.033,0.875c0.335,0.301,0.641,0.631,0.938,0.965
			c0.297,0.336,0.579,0.683,0.841,1.045c0.258,0.365,0.507,0.735,0.736,1.119c0.232,0.388,0.439,0.762,0.644,1.208l0.166,0.362
			l-0.194,0.292c-0.212,0.318-0.419,0.58-0.641,0.856c-0.221,0.271-0.449,0.534-0.689,0.787c-0.234,0.258-0.495,0.492-0.755,0.726
			l-0.408,0.333c-0.132,0.113-0.284,0.208-0.425,0.312s-0.286,0.203-0.444,0.286c-0.156,0.083-0.299,0.184-0.466,0.251l-0.483,0.216
			l-0.508,0.16c-0.164,0.06-0.35,0.064-0.521,0.096l-0.259,0.036l-0.264-0.004c-0.175-0.012-0.347,0.008-0.516-0.044l-0.496-0.117
			l0.501-0.029c0.163,0.007,0.323-0.063,0.48-0.089l0.234-0.051l0.225-0.089c0.146-0.067,0.299-0.102,0.435-0.193l0.414-0.228
			l0.388-0.275c0.131-0.084,0.244-0.203,0.365-0.302c0.121-0.101,0.241-0.203,0.352-0.318c0.112-0.113,0.232-0.213,0.336-0.336
			l0.319-0.354c0.202-0.248,0.4-0.496,0.593-0.751c0.191-0.254,0.374-0.517,0.547-0.784c0.092-0.144,0.185-0.293,0.271-0.442
			c-0.142-0.236-0.294-0.479-0.456-0.708c-0.229-0.333-0.477-0.652-0.731-0.966c-0.263-0.307-0.519-0.618-0.798-0.908
			c-0.279-0.289-0.559-0.578-0.857-0.842c-0.291-0.276-0.606-0.519-0.917-0.768c-0.317-0.237-0.636-0.478-0.975-0.681l-0.509-0.306
			c-0.17-0.094-0.341-0.169-0.51-0.257c-0.313-0.175-0.748-0.327-1.131-0.493c-0.131-0.059-0.351-0.106-0.522-0.162
			c-0.184-0.047-0.364-0.125-0.555-0.14l-0.564-0.086c-0.189-0.025-0.381-0.02-0.572-0.033c-0.193-0.016-0.386-0.017-0.578,0.007
			c-0.192,0.02-0.389,0.02-0.581,0.055c-0.385,0.07-0.771,0.146-1.154,0.265c-0.195,0.045-0.381,0.123-0.57,0.193
			c-0.191,0.068-0.38,0.142-0.562,0.234c-0.373,0.164-0.74,0.354-1.1,0.563c-0.712,0.425-1.408,0.908-2.054,1.474
			C188.35,68.854,188.93,68.195,189.583,67.611z M183.138,72.331c0.476,0.106,0.945,0.24,1.416,0.381
			c0.465,0.152,0.929,0.316,1.381,0.514c0.461,0.177,0.895,0.416,1.341,0.635c0.428,0.252,0.867,0.49,1.268,0.792
			c0.202,0.147,0.415,0.283,0.609,0.442l0.576,0.491c0.396,0.318,0.713,0.722,1.068,1.088c0.293,0.417,0.638,0.807,0.886,1.258
			c0.247,0.451,0.531,0.89,0.696,1.382l0.283,0.725c0.092,0.273,0.139,0.476,0.21,0.718l0.397,1.393
			c0.138,0.458,0.229,0.962,0.347,1.443c0.114,0.485,0.226,0.971,0.288,1.465c0.069,0.494,0.169,0.979,0.2,1.484
			c0.05,0.5,0.093,1.002,0.091,1.521c0.012,0.253,0,0.518-0.019,0.785c-0.008,0.133-0.012,0.263-0.035,0.409
			c-0.022,0.148-0.028,0.263-0.082,0.475l-0.636,2.501l-0.947-2.443c-0.098-0.25-0.207-0.508-0.316-0.767
			c-0.104-0.261-0.219-0.515-0.346-0.761l-0.183-0.374c-0.063-0.122-0.116-0.255-0.188-0.369l-0.42-0.681l-0.104-0.171l-0.047-0.076
			l-0.027-0.031c-0.057-0.058-0.119-0.133-0.177-0.196c0.073,0.256,0.137,0.515,0.179,0.778c0.074,0.382,0.088,0.774,0.095,1.161
			c-0.011,0.389-0.034,0.775-0.106,1.155c-0.05,0.383-0.175,0.749-0.277,1.115c-0.143,0.353-0.255,0.718-0.441,1.044l-0.264,0.498
			l-0.294,0.46l-0.573,0.885c-0.187,0.295-0.418,0.583-0.625,0.875c-0.215,0.287-0.421,0.584-0.653,0.853l-0.684,0.818
			c-0.227,0.273-0.473,0.53-0.713,0.79c-0.238,0.262-0.488,0.514-0.742,0.76c-0.493,0.506-1.033,0.968-1.574,1.417
			c0.462-0.532,0.896-1.085,1.315-1.645c0.214-0.277,0.422-0.558,0.618-0.847c0.196-0.29,0.413-0.562,0.601-0.856l0.57-0.874
			c0.197-0.287,0.352-0.594,0.535-0.885c0.173-0.299,0.36-0.577,0.521-0.891l0.488-0.934l0.233-0.451l0.19-0.453
			c0.146-0.294,0.216-0.612,0.319-0.917c0.063-0.313,0.15-0.624,0.167-0.941c0.041-0.315,0.036-0.63,0.026-0.944
			c-0.028-0.313-0.063-0.624-0.133-0.929c-0.062-0.307-0.15-0.609-0.265-0.9c-0.106-0.294-0.249-0.575-0.397-0.849
			c-0.151-0.26-0.346-0.55-0.502-0.729l-1.993-2.303l2.853,1.069c0.163,0.062,0.301,0.114,0.446,0.177
			c0.144,0.061,0.287,0.121,0.428,0.19c0.285,0.128,0.563,0.282,0.841,0.446l0.414,0.267c0.154,0.116,0.31,0.243,0.458,0.37
			c0.151,0.128,0.213,0.22,0.323,0.332l0.038,0.04l0.019,0.02l0.009,0.01l0.054,0.067l0.005,0.006l0.063,0.1l0.129,0.2l0.041,0.065
			c-0.032-0.227-0.068-0.454-0.097-0.68c-0.057-0.466-0.146-0.924-0.233-1.384c-0.094-0.462-0.151-0.915-0.273-1.387l-0.341-1.409
			c-0.057-0.224-0.113-0.494-0.17-0.68l-0.212-0.637c-0.11-0.438-0.337-0.829-0.523-1.24c-0.188-0.41-0.473-0.769-0.704-1.159
			l-0.434-0.531c-0.14-0.18-0.281-0.362-0.449-0.52l-0.484-0.496c-0.163-0.163-0.349-0.305-0.523-0.459
			c-0.343-0.317-0.739-0.569-1.113-0.855c-0.395-0.254-0.781-0.531-1.201-0.751c-0.41-0.241-0.839-0.446-1.266-0.663
			c-0.867-0.402-1.76-0.768-2.689-1.042C182.182,72.142,182.658,72.234,183.138,72.331z M160.643,83.347
			c0.116-0.098,0.281-0.217,0.476-0.335c0.39-0.232,0.899-0.411,1.401-0.487c0.126-0.015,0.253-0.031,0.376-0.038
			c0.125-0.01,0.248-0.007,0.365-0.006c0.24,0.008,0.466,0.035,0.668,0.067c0.206,0.038,0.39,0.074,0.532,0.095
			c0.14,0.019,0.245,0.036,0.245,0.036s-0.009,0.093-0.068,0.245c-0.029,0.079-0.072,0.166-0.135,0.25
			c-0.06,0.091-0.135,0.193-0.225,0.278c-0.179,0.183-0.414,0.35-0.675,0.472c-0.263,0.128-0.551,0.208-0.84,0.254
			c-0.581,0.086-1.166-0.01-1.598-0.202c-0.215-0.096-0.394-0.206-0.517-0.298c-0.123-0.09-0.191-0.163-0.191-0.163
			S160.526,83.442,160.643,83.347z M158.618,79.784l-0.012,0.02l-0.006,0.01l-0.003,0.005l-0.055,0.059
			c-0.061,0.059-0.128,0.114-0.198,0.164c-0.136,0.093-0.268,0.14-0.391,0.18c-0.23,0.063-0.43,0.077-0.596,0.072
			c-0.343-0.002-0.624-0.06-0.895-0.113c-0.267-0.064-0.514-0.13-0.744-0.202c-0.198-0.06-0.394-0.12-0.583-0.177l-0.089-0.017
			l-0.021-0.004l-0.006-0.001l-0.003,0c-0.03-0.001,0.038,0,0.032,0h0.005c0.006,0,0.013-0.001,0.019-0.003
			c0.027-0.012,0.042-0.034,0.047-0.041c0.014-0.036-0.025-0.03-0.076-0.005c-0.102,0.054-0.23,0.183-0.338,0.315
			c-0.225,0.269-0.408,0.549-0.547,0.741c-0.136,0.196-0.225,0.313-0.225,0.313s-0.055-0.137-0.1-0.381
			c-0.043-0.245-0.084-0.594-0.021-1.04c0.038-0.222,0.097-0.472,0.274-0.759c0.09-0.141,0.219-0.301,0.444-0.428
			c0.106-0.068,0.234-0.115,0.38-0.137l0.107-0.017l0.026-0.003h0.04l0.006,0l0.022-0.002l0.09-0.007
			c0.338-0.008,0.616,0.031,0.876,0.075c0.263,0.041,0.513,0.102,0.746,0.148c0.229,0.056,0.454,0.098,0.616,0.125
			c0.085,0.014,0.138,0.012,0.149,0.027c-0.006,0.005-0.016,0.016-0.051,0.042c-0.021,0.014-0.04,0.034-0.051,0.057l-0.001,0.002
			c0.039-0.043-0.057,0.062-0.045,0.05l0.004-0.004l0.008-0.008l0.017-0.016l0.032-0.032c0.167-0.169,0.357-0.329,0.503-0.471
			c0.142-0.14,0.285-0.27,0.426-0.391c0.286-0.241,0.552-0.47,0.75-0.606c0.194-0.144,0.322-0.218,0.322-0.218
			s-0.001,0.146-0.036,0.389c-0.041,0.244-0.095,0.571-0.23,0.973c-0.07,0.201-0.155,0.419-0.256,0.648
			c-0.103,0.222-0.217,0.415-0.342,0.627L158.618,79.784z M168.635,84.859c-0.174,0.269-0.445,0.635-0.821,1.03
			c-0.183,0.205-0.412,0.391-0.649,0.599c-0.233,0.212-0.524,0.385-0.813,0.579c-0.138,0.101-0.308,0.185-0.489,0.267
			c-0.177,0.085-0.359,0.167-0.545,0.245c-0.365,0.152-0.672,0.195-1.016,0.292l-0.102,0.021l-0.036,0.002l-0.074,0.005
			l-0.146,0.008l-0.293,0.017c-0.193,0.007-0.393,0.023-0.577,0.006c-0.369-0.041-0.739-0.068-1.076-0.15
			c-0.335-0.087-0.663-0.16-0.955-0.274c-0.292-0.115-0.569-0.215-0.812-0.341c-0.487-0.243-0.868-0.49-1.125-0.681
			c-0.258-0.192-0.388-0.323-0.388-0.323s0.189-0.001,0.5,0.013c0.154,0.008,0.347,0.005,0.557,0.025
			c0.21,0.01,0.448,0.022,0.707,0.036c0.254,0.022,0.53,0.021,0.814,0.045c0.285,0.025,0.583,0.012,0.885,0.035
			c0.304,0.015,0.605-0.014,0.913-0.002c0.154,0.005,0.297-0.034,0.446-0.04l0.223-0.018l0.111-0.008l0.056-0.004l0.007,0
			l0.486-0.11c0.159-0.043,0.358-0.06,0.47-0.117c0.263-0.112,0.515-0.145,0.799-0.273c0.275-0.122,0.562-0.199,0.816-0.326
			c0.259-0.118,0.521-0.206,0.749-0.318c0.238-0.101,0.457-0.193,0.65-0.275c0.189-0.091,0.372-0.154,0.514-0.216
			c0.288-0.122,0.465-0.186,0.465-0.186S168.808,84.59,168.635,84.859z M171.967,75.285c-0.239,0.245-0.51,0.472-0.821,0.654
			c-0.151,0.094-0.319,0.176-0.491,0.244c-0.175,0.066-0.354,0.12-0.542,0.154c-0.17,0.035-0.462,0.055-0.587,0.04l-0.107-0.009
			l-0.054-0.005l-0.027-0.002l-0.014-0.001l-0.054-0.001c-0.028-0.005-0.058-0.016-0.084-0.018
			c-0.104-0.015-0.259,0.026-0.431,0.164c-0.172,0.131-0.322,0.34-0.477,0.556c-0.299,0.446-0.544,0.969-0.787,1.51
			c-0.082-0.593-0.054-1.196,0.093-1.808c0.07-0.309,0.195-0.613,0.396-0.919c0.192-0.3,0.532-0.618,0.999-0.725
			c0.114-0.029,0.229-0.041,0.345-0.047h0.006h0.002c0.041,0-0.052-0.001-0.042-0.001l0.007-0.001l0.014-0.002l0.026-0.003
			l0.054-0.007l0.107-0.014c0.086-0.006,0.115-0.026,0.148-0.042c0.037-0.017,0.063-0.02,0.113-0.045
			c0.05-0.019,0.097-0.047,0.145-0.073c-0.275-0.034-0.555-0.081-0.86-0.187c-0.184-0.064-0.379-0.146-0.591-0.304
			c-0.111-0.087-0.2-0.163-0.327-0.345l-0.026-0.049c-0.01-0.018-0.046-0.085-0.064-0.127c-0.049-0.107-0.057-0.169-0.075-0.25
			c-0.049-0.309,0.019-0.556,0.096-0.751c0.08-0.197,0.187-0.352,0.294-0.493c0.221-0.277,0.454-0.506,0.715-0.697
			c0.515-0.376,1.086-0.678,1.701-0.771c-0.462,0.399-0.836,0.842-1.146,1.307c-0.149,0.234-0.293,0.464-0.379,0.693
			c-0.044,0.112-0.07,0.224-0.079,0.309c-0.011,0.085,0.013,0.141,0.026,0.123c0.004-0.011,0.011,0-0.002-0.042
			c-0.001-0.009-0.025-0.042-0.015-0.028l0.035,0.043c-0.037-0.065-0.015-0.04-0.002-0.047l0.222,0.04
			c0.203,0.027,0.462,0.035,0.723,0.031c0.262-0.01,0.535-0.016,0.809-0.042l0.413-0.034l0.401-0.044l1.688-0.186l-0.851,1.42
			c-0.113,0.188-0.198,0.307-0.307,0.448C172.197,75.035,172.086,75.163,171.967,75.285z M159.496,122.722
			c-0.69,0.206-1.338,0.513-1.995,0.79c-0.323,0.148-0.628,0.333-0.942,0.497l-0.444,0.24l-0.46,0.309
			c-0.302,0.208-0.626,0.406-0.908,0.623l-0.821,0.657c-0.278,0.206-0.534,0.472-0.801,0.708c-0.261,0.246-0.537,0.473-0.783,0.738
			l-0.755,0.77l-0.72,0.808c-0.483,0.534-0.922,1.111-1.37,1.678c-0.436,0.579-0.864,1.162-1.269,1.764
			c-0.411,0.597-0.813,1.201-1.193,1.819c-0.246,0.395-0.476,0.8-0.709,1.203c0.148-0.083,0.295-0.167,0.446-0.246l3.097-1.676
			c0.143-0.075,0.227-0.127,0.418-0.222l0.4-0.167l0.801-0.334c0.269-0.11,0.53-0.227,0.805-0.331l0.844-0.299
			c0.563-0.195,1.13-0.398,1.687-0.563c0.56-0.173,1.116-0.348,1.686-0.508l3.228-0.91l-2.509,2.203
			c-0.494,0.434-0.979,0.891-1.465,1.347c-0.239,0.23-0.492,0.449-0.723,0.688l-0.701,0.708l-0.706,0.703
			c-0.243,0.229-0.46,0.477-0.677,0.724l-1.313,1.479l-0.082,0.093c0.011-0.021-0.039,0.053-0.056,0.075l-0.146,0.206l-0.294,0.411
			l-0.29,0.411l-0.241,0.411c-0.157,0.279-0.333,0.538-0.482,0.831l-0.453,0.876c-0.148,0.294-0.277,0.6-0.417,0.899
			c-0.142,0.298-0.262,0.608-0.388,0.914c-0.102,0.244-0.195,0.492-0.288,0.74c0.952-0.629,1.909-1.249,2.89-1.834
			c0.329-0.204,0.668-0.396,1.005-0.59c0.339-0.19,0.668-0.395,1.016-0.57c0.346-0.178,0.688-0.361,1.036-0.534l1.063-0.475
			l-1.002,0.585c-0.326,0.208-0.646,0.427-0.967,0.638c-0.325,0.207-0.637,0.437-0.954,0.657c-0.316,0.221-0.633,0.441-0.942,0.672
			c-1.249,0.906-2.485,1.837-3.692,2.79l-0.942,0.744l0.307-1.181c0.175-0.673,0.369-1.321,0.593-1.968
			c0.112-0.323,0.217-0.648,0.346-0.966c0.127-0.318,0.242-0.641,0.378-0.957l0.42-0.944c0.138-0.315,0.322-0.627,0.486-0.939
			l0.253-0.469l0.275-0.425l0.275-0.423l0.139-0.211c0.032-0.046,0.025-0.045,0.089-0.13l0.081-0.1l1.301-1.598
			c0.216-0.268,0.433-0.536,0.669-0.779l0.696-0.749l0.496-0.527c-0.034,0.013-0.068,0.026-0.103,0.038l-0.792,0.286
			c-0.265,0.103-0.531,0.224-0.797,0.335l-0.798,0.341l-0.399,0.17l-0.345,0.192l-2.995,1.656c-0.502,0.267-0.993,0.565-1.486,0.86
			l-1.484,0.877l-2.381,1.408l1.198-2.462c0.343-0.704,0.693-1.354,1.068-2.011c0.369-0.655,0.757-1.299,1.161-1.933
			c0.398-0.637,0.818-1.261,1.253-1.875c0.436-0.614,0.896-1.209,1.364-1.8c0.482-0.58,0.954-1.168,1.476-1.716l0.775-0.828
			l0.816-0.791c0.266-0.27,0.563-0.511,0.852-0.757c0.297-0.241,0.565-0.5,0.89-0.723l0.94-0.686
			c0.314-0.219,0.63-0.393,0.945-0.591l0.473-0.289c0.217-0.115,0.356-0.178,0.539-0.269c0.347-0.164,0.685-0.348,1.038-0.493
			c0.714-0.275,1.428-0.547,2.166-0.727c0.727-0.224,1.477-0.338,2.216-0.481c0.747-0.102,1.492-0.207,2.242-0.237
			c0.374-0.032,0.749-0.041,1.123-0.042c0.374-0.004,0.748-0.018,1.121,0c0.746,0.011,1.49,0.061,2.231,0.131
			c0.74,0.079,1.478,0.169,2.209,0.299c0.73,0.127,1.456,0.285,2.171,0.476c-1.463-0.22-2.937-0.312-4.404-0.336
			c-0.734,0-1.468,0.007-2.198,0.048c-0.365,0.009-0.729,0.049-1.093,0.08c-0.363,0.029-0.727,0.064-1.086,0.122
			c-0.724,0.087-1.437,0.225-2.146,0.364C160.879,122.321,160.169,122.469,159.496,122.722z M165.188,128.824
			c-0.331,0.092-0.636,0.177-0.911,0.254c-0.544,0.171-0.979,0.301-1.265,0.414c-0.291,0.104-0.442,0.171-0.442,0.171
			s0.135-0.094,0.402-0.252c0.265-0.163,0.661-0.388,1.186-0.642c0.265-0.121,0.558-0.255,0.877-0.402
			c0.329-0.124,0.686-0.257,1.066-0.4c0.772-0.25,1.653-0.543,2.651-0.704c0.248-0.048,0.502-0.097,0.761-0.147
			c0.26-0.039,0.528-0.057,0.8-0.087c0.545-0.051,1.116-0.111,1.674-0.126c1.125-0.049,2.295-0.127,3.511-0.222
			c1.213-0.096,2.456-0.257,3.709-0.437c1.252-0.183,2.508-0.444,3.716-0.805c1.211-0.346,2.386-0.795,3.391-1.421
			c0.124-0.079,0.256-0.151,0.375-0.235l0.34-0.266l0.173-0.129l0.087-0.064l0.006-0.005l0.004-0.003l0.042-0.042l0.341-0.333
			c0.227-0.222,0.452-0.442,0.676-0.661c0.23-0.217,0.444-0.437,0.629-0.664c0.39-0.447,0.766-0.894,1.151-1.318
			c0.378-0.44,0.735-0.897,1.091-1.328c0.713-0.863,1.353-1.714,1.967-2.481c2.406-3.126,4.011-5.211,4.011-5.211
			s-0.288,0.595-0.827,1.616c-0.548,1.017-1.347,2.461-2.396,4.143c-0.533,0.836-1.088,1.757-1.757,2.681
			c-0.329,0.467-0.652,0.951-1.012,1.439c-0.37,0.489-0.768,0.975-1.164,1.477c-0.195,0.259-0.404,0.493-0.62,0.715
			c-0.214,0.229-0.43,0.459-0.646,0.691l-0.326,0.348l-0.041,0.044l-0.021,0.022l-0.044,0.042l-0.012,0.01l-0.102,0.084
			l-0.204,0.169l-0.416,0.333c-0.142,0.104-0.292,0.192-0.439,0.289c-1.184,0.758-2.482,1.271-3.79,1.662
			c-1.315,0.372-2.646,0.625-3.955,0.797c-1.31,0.181-2.604,0.252-3.85,0.306c-1.244,0.057-2.457,0.031-3.59,0
			c-0.572-0.03-1.097,0.001-1.614-0.006c-0.258,0.002-0.514-0.008-0.763,0.003c-0.249,0.022-0.493,0.044-0.732,0.066
			c-0.48,0.04-0.942,0.078-1.376,0.16c-0.434,0.076-0.855,0.117-1.238,0.211C165.885,128.667,165.522,128.749,165.188,128.824z
			 M174.206,137.732c-0.365,0.064-0.737,0.091-1.094,0.155c-0.348,0.089-0.706,0.146-1.038,0.255
			c-0.659,0.225-1.298,0.462-1.844,0.8c-0.138,0.083-0.274,0.165-0.408,0.245c-0.125,0.094-0.249,0.187-0.37,0.278
			c-0.257,0.168-0.462,0.38-0.679,0.568c-0.212,0.192-0.381,0.41-0.566,0.599c-0.16,0.208-0.332,0.397-0.462,0.596
			c-0.267,0.393-0.494,0.752-0.646,1.066c-0.32,0.623-0.443,1.019-0.443,1.019s-0.005-0.102,0.009-0.296
			c0.019-0.191,0.038-0.479,0.122-0.833c0.073-0.358,0.198-0.788,0.4-1.262c0.094-0.242,0.23-0.48,0.357-0.745
			c0.153-0.247,0.313-0.515,0.509-0.771c0.203-0.25,0.4-0.53,0.657-0.771c0.126-0.124,0.254-0.25,0.384-0.378
			c0.144-0.112,0.289-0.227,0.438-0.342c0.591-0.468,1.293-0.854,2.055-1.158c0.38-0.154,0.781-0.253,1.183-0.383
			c0.404-0.107,0.821-0.169,1.241-0.242c0.445-0.068,0.81-0.088,1.222-0.135c0.399-0.042,0.828-0.061,1.241-0.092
			c0.831-0.035,1.648-0.047,2.455-0.033c0.803,0.005,1.587,0.054,2.34,0.073c0.749,0.013,1.473,0.055,2.144,0.041
			c0.677-0.004,1.299-0.05,1.871-0.127c0.287-0.034,0.545-0.118,0.807-0.163c0.25-0.068,0.482-0.154,0.709-0.224
			c0.213-0.1,0.412-0.194,0.597-0.28c0.187-0.089,0.334-0.208,0.484-0.297c0.304-0.176,0.493-0.378,0.646-0.494
			c0.148-0.122,0.229-0.187,0.229-0.187s-0.054,0.086-0.156,0.249c-0.114,0.153-0.235,0.426-0.499,0.681
			c-0.128,0.131-0.255,0.298-0.425,0.443c-0.172,0.143-0.365,0.294-0.576,0.45c-0.225,0.129-0.464,0.279-0.726,0.416
			c-0.27,0.11-0.556,0.245-0.861,0.338c-0.611,0.196-1.292,0.36-2.005,0.439c-0.717,0.102-1.463,0.159-2.23,0.187
			c-0.767,0.026-1.551,0.065-2.341,0.076c-0.789,0.023-1.591,0.04-2.378,0.08c-0.394,0.021-0.775,0.025-1.179,0.058
			C174.988,137.666,174.55,137.684,174.206,137.732z M206.313,180.71c-0.043,0.081-0.094,0.166-0.14,0.264
			c-0.036,0.107-0.085,0.215-0.13,0.332c-0.091,0.236-0.209,0.48-0.29,0.78c-0.088,0.293-0.209,0.588-0.288,0.933
			c-0.09,0.335-0.197,0.679-0.278,1.053c-0.046,0.183-0.094,0.369-0.142,0.558c-0.042,0.191-0.085,0.385-0.128,0.58
			c-0.092,0.388-0.178,0.785-0.259,1.187c-0.101,0.395-0.165,0.801-0.259,1.193c-0.086,0.396-0.161,0.788-0.253,1.166
			c-0.16,0.759-0.332,1.47-0.486,2.084c-0.161,0.612-0.306,1.127-0.418,1.489c-0.11,0.36-0.188,0.57-0.188,0.57
			s-0.068-0.212-0.143-0.586c-0.078-0.375-0.161-0.91-0.213-1.555c-0.106-1.289-0.043-3.017,0.325-4.714
			c0.095-0.423,0.19-0.846,0.327-1.256c0.115-0.412,0.269-0.811,0.431-1.191c0.146-0.383,0.343-0.739,0.525-1.073
			c0.171-0.338,0.402-0.633,0.596-0.902c0.184-0.276,0.425-0.491,0.616-0.684c0.098-0.095,0.184-0.187,0.272-0.263
			c0.096-0.071,0.19-0.13,0.272-0.186c0.329-0.216,0.519-0.313,0.519-0.313S206.485,180.388,206.313,180.71z M210.829,181.769
			c-0.043,0.11-0.083,0.244-0.111,0.406c-0.025,0.163-0.082,0.315-0.097,0.512c-0.016,0.195-0.066,0.375-0.074,0.595
			c-0.012,0.216-0.05,0.425-0.054,0.662c-0.032,0.459-0.061,0.954-0.077,1.459c-0.023,0.249-0.02,0.506-0.04,0.757
			c-0.017,0.25-0.022,0.501-0.048,0.744c-0.031,0.488-0.081,0.951-0.135,1.355c-0.058,0.405-0.119,0.75-0.172,0.997
			c-0.053,0.245-0.096,0.393-0.096,0.393s-0.099-0.117-0.23-0.336c-0.135-0.218-0.302-0.538-0.458-0.935
			c-0.314-0.791-0.545-1.905-0.49-3.054c0.023-0.571,0.122-1.15,0.294-1.68c0.069-0.264,0.201-0.516,0.308-0.746
			c0.103-0.232,0.271-0.438,0.396-0.621c0.121-0.188,0.308-0.325,0.437-0.45c0.125-0.132,0.274-0.212,0.395-0.273
			c0.235-0.126,0.372-0.17,0.372-0.17S210.905,181.541,210.829,181.769z M220.879,202.242l-0.011,0.24l-0.021,0.48
			c-0.019,0.32-0.036,0.639-0.054,0.954c-0.036,0.632-0.085,1.252-0.141,1.854c-0.178,1.218-0.356,2.351-0.559,3.307
			c-0.215,0.952-0.432,1.736-0.595,2.282c-0.172,0.546-0.289,0.852-0.289,0.852s-0.026-0.329-0.039-0.896
			c-0.024-0.569-0.049-1.38-0.03-2.342c-0.02-0.962-0.008-2.071,0.03-3.253c-0.004-0.602-0.011-1.226,0.002-1.857
			c0.005-0.316,0.012-0.636,0.017-0.955l0.015-0.48l0.007-0.241l-0.014-0.201l-0.049-0.909c-0.017-0.302-0.014-0.604-0.069-0.905
			c-0.097-0.602-0.122-1.201-0.243-1.778c-0.119-0.573-0.168-1.145-0.297-1.672c-0.126-0.528-0.197-1.043-0.31-1.507
			c-0.414-1.891-0.69-3.151-0.69-3.151s0.791,1.059,1.597,2.851c0.216,0.442,0.4,0.942,0.6,1.47
			c0.213,0.523,0.367,1.104,0.545,1.696c0.096,0.295,0.163,0.604,0.221,0.921c0.061,0.315,0.122,0.636,0.183,0.958
			c0.13,0.644,0.125,1.333,0.185,2.005C220.873,202.058,220.882,202.104,220.879,202.242z"/>
	</g>
</g>
</svg>
